<?xml version="1.0" encoding="UTF-8"?><svg id="Layer_1" xmlns="http://www.w3.org/2000/svg" viewBox="0 0 1000 1000"><defs><style>.cls-1{fill:#fff;}</style></defs><path id="Logo" class="cls-1" d="M932.2,124.71c-18.51,4.69-28.17,9.7-28.17,9.7,0,0-56.35,21.76-56.35,123.43,1.03,103.86,152.32,664.74,152.32,664.74,0,0-.12,2.95-.88,4.41-2.03,3.92-5.28,3.53-5.28,3.53H17.39s-14,1.07-15.85-2.64c-3.93-7.89,.88-26.45,.88-26.45l43.14-228.34s2.09-9.27,5.28-11.46c8.83-6.06,25.53-9.7,25.53-9.7,0,0,88.08-16.48,211.31-62.59,152.86-57.2,281.95-115.37,354.83-325.32,23.01-66.27,51-151.69,111.82-178.09,112.38-48.78,177.86,28.21,177.86,28.21,0,0,10.17,8.01,0,10.58ZM459.39,453.55s-71.52,62.82-164.65,102.27c-105.22,44.57-219.24,85.52-219.24,85.52,0,0-14.9,5.06-19.37,1.76-4.8-3.54-3.55-8.33,6.16-55.54,14.17-68.91,40.5-185.14,40.5-185.14,0,0,38.63-207.69,107.42-289.17,12.85-15.22,31.91-25.78,47.55-31.74,93.67-35.69,152.32,18.51,152.32,18.51,0,0,20.1,14.9,20.25,20.28,.12,4.37-18.49,7.93-18.49,7.93,0,0-60.77,14.02-58.11,98.74,2.35,75.04,60.75,141.94,60.75,141.94,0,0,12.87,15.21,28.18,29.09,28.21,25.59,35.19,26.42,36.1,32.62,.93,6.34-19.37,22.92-19.37,22.92Z"/></svg>