<svg xmlns="http://www.w3.org/2000/svg" viewBox="0 0 200.08 226.47"><defs><style>.cls-1{fill:#ff7977;}</style></defs><g id="Layer_2" data-name="Layer 2"><g id="Clients"><g id="Logos_Color" data-name="Logos Color"><g id="Airbnb"><path class="cls-1" d="M171,119.83a36.36,36.36,0,0,0-2.68-12.8c-1.24-3.15-2.67-6.22-4.08-9.31q-16.72-36.45-35.1-72.12c-1.72-3.32-3.4-6.66-5.22-9.93a35.21,35.21,0,0,0-6.57-8.76A25.58,25.58,0,0,0,101.4,0H98.68A25.54,25.54,0,0,0,82.26,7.12a35.55,35.55,0,0,0-6.34,8.56c-1.79,3.21-3.46,6.5-5.15,9.77Q58.46,49.38,46.85,73.66c-4.6,9.69-9.17,19.4-13.57,29.18a47.76,47.76,0,0,0-4.09,12.74,32.52,32.52,0,0,0,19.22,34.58,32.94,32.94,0,0,0,15,2.66,41,41,0,0,0,19.31-6.44c6.49-4,12-9.27,17.2-14.81a87.28,87.28,0,0,0,15.88,14A42.52,42.52,0,0,0,135,152.7a32.59,32.59,0,0,0,33.76-20.34A32.36,32.36,0,0,0,171,119.83ZM100,116.94c-1.87-2.21-3.52-4.6-5.18-7a85.17,85.17,0,0,1-7.37-12.89,42.2,42.2,0,0,1-3.53-11.77,20.12,20.12,0,0,1,.9-9.71,14.26,14.26,0,0,1,5.7-7,17.71,17.71,0,0,1,20.6,1.28,14.93,14.93,0,0,1,5,9.65,31.14,31.14,0,0,1-2.25,14.33c-3.22,8.45-8.31,16-13.82,23.12Zm60.66,10.34a22.92,22.92,0,0,1-10.82,13.56,23.56,23.56,0,0,1-15.29,2.59c-6.61-1-12.54-4.54-17.68-8.68a92.89,92.89,0,0,1-10.44-10.08,120.58,120.58,0,0,0,13.69-20.76c3.23-6.52,5.69-13.58,5.92-20.91a27.5,27.5,0,0,0-2.91-13.52,24.88,24.88,0,0,0-13.78-11.84,28.26,28.26,0,0,0-17.09-.54A24.76,24.76,0,0,0,74,79.37c-.59,6.85,1.12,13.68,3.72,20,3.86,9.19,9.52,17.52,15.78,25.24a85.55,85.55,0,0,1-9.16,9.1c-5.08,4.3-10.89,8-17.47,9.47a24,24,0,0,1-15.95-1.87A23,23,0,0,1,39.14,126.9,23.74,23.74,0,0,1,39.66,113c1.25-3.67,3-7.17,4.54-10.7Q60.74,66.27,78.91,31c1.8-3.5,3.58-7,5.49-10.46a23.51,23.51,0,0,1,5.94-7.45,15.88,15.88,0,0,1,19.67.37c2.73,2.27,4.57,5.37,6.23,8.46,3.74,7,7.33,14.13,10.92,21.23q15.39,30.45,29.56,61.48a74.44,74.44,0,0,1,3.92,9.8,23.55,23.55,0,0,1,0,12.87ZM46.45,171.77a6.28,6.28,0,1,1-2.26,1A6.23,6.23,0,0,1,46.45,171.77ZM67.31,192a12.3,12.3,0,0,1,7.18-3.69,17.14,17.14,0,0,1,5.39.34c0,2.85,0,5.69,0,8.54a14.29,14.29,0,0,0-8.49.14,10.06,10.06,0,0,0-3.88,2.55c-.24.2-.18.52-.2.8,0,8,0,15.91,0,23.86a2.71,2.71,0,0,1-.09.94c-3.07.07-6.15,0-9.22,0q0-18.18,0-36.38c2.59,0,5.18,0,7.76,0a1.39,1.39,0,0,1,1.39.81A7.51,7.51,0,0,1,67.31,192Zm66.22,0a13.23,13.23,0,0,1,9.52-3.8,15.43,15.43,0,0,1,10.33,3.39,11.18,11.18,0,0,1,3.9,5.88,30.81,30.81,0,0,1,.73,8.73c0,6.42,0,12.84,0,19.27-3.1,0-6.2,0-9.29,0V206.25c0-2.38.11-4.95-1.16-7.08a5.56,5.56,0,0,0-4.32-2.46,10.14,10.14,0,0,0-8.78,3.1,1.22,1.22,0,0,0-.41.89c0,1,.12,2,0,3-.12,1.35.07,2.7,0,4.05,0,2.55,0,5.11,0,7.66-.17,3.37.13,6.76-.07,10.13h-9.25c0-12.13,0-24.26,0-36.39,2.39,0,4.78,0,7.16,0a1.37,1.37,0,0,1,1.45.93,10,10,0,0,1,.12,2ZM43.05,225.53q0-18.19,0-36.39c3.07,0,6.15,0,9.22,0q0,18.2,0,36.39Zm-5.72-36.38c-2.44,0-4.87,0-7.31,0-.64,0-1.46,0-1.78.71A6.46,6.46,0,0,0,28,192a12.36,12.36,0,0,0-7.81-3.72,18.68,18.68,0,0,0-12.85,3.6A18.12,18.12,0,0,0,1,200.85,23.38,23.38,0,0,0,0,206v2.49a19.19,19.19,0,0,0,6.62,13.73,18.77,18.77,0,0,0,11,4.28h2.07A12.48,12.48,0,0,0,28,222.6a6.36,6.36,0,0,0,.2,2.22,1.58,1.58,0,0,0,1.55.71c2.51,0,5,0,7.54,0q0-18.18,0-36.36Zm-9.57,25A9.84,9.84,0,0,1,20,217.68,10.86,10.86,0,0,1,11.56,214a10.94,10.94,0,0,1-2.13-8.62A9.53,9.53,0,0,1,13,199.17a11.25,11.25,0,0,1,6.23-2.27A10.1,10.1,0,0,1,28,200.76c.12,4,0,7.92,0,11.88,0,.52.12,1.14-.3,1.55Zm91.72-14.64a18.15,18.15,0,0,0-7.19-8.53,18.93,18.93,0,0,0-11.18-2.73,12.49,12.49,0,0,0-8.2,3.75c0-6.79,0-13.58,0-20.38-3.09,0-6.19,0-9.29,0,0,18,0,35.9,0,53.85h7.7a1.41,1.41,0,0,0,1.5-.94,11.17,11.17,0,0,0,.09-2,12.41,12.41,0,0,0,8.49,3.88h1.9a18.49,18.49,0,0,0,13.44-6.72,20.39,20.39,0,0,0,2.73-20.19Zm-10.84,15.31a11.29,11.29,0,0,1-7.75,2.83,9.85,9.85,0,0,1-7.71-3.55,1.13,1.13,0,0,1-.28-.86V200.79a10.3,10.3,0,0,1,7.54-3.92,11.35,11.35,0,0,1,8.22,2.86,11,11,0,0,1,0,15.13Zm87.29-19.81a18.45,18.45,0,0,0-17-6.61A12.21,12.21,0,0,0,172,192c0-6.79,0-13.58,0-20.38h-9.28v53.85c2.44,0,4.89,0,7.32,0,.64,0,1.45,0,1.77-.7a6.22,6.22,0,0,0,.2-2.24,12.53,12.53,0,0,0,8.37,3.87h2.08a18.53,18.53,0,0,0,13.3-6.64,19.59,19.59,0,0,0,4.3-11.35V206a19.77,19.77,0,0,0-4.15-11Zm-7.24,18.77c-2.45,3.15-6.78,4.33-10.62,3.72a9.64,9.64,0,0,1-6-3.7c-.15-1.53,0-3.08-.06-4.61,0-2.83-.07-5.66,0-8.48a10,10,0,0,1,6-3.69c4.29-.8,9.27.9,11.44,4.86a11.27,11.27,0,0,1-.79,11.9Z"/></g></g></g></g></svg>