<?xml version="1.0" encoding="utf-8"?>
<!-- Generator: Adobe Illustrator 23.0.1, SVG Export Plug-In . SVG Version: 6.00 Build 0)  -->
<svg version="1.1" id="Layer_1" xmlns="http://www.w3.org/2000/svg" xmlns:xlink="http://www.w3.org/1999/xlink" x="0px" y="0px"
	 viewBox="0 0 300 300" style="enable-background:new 0 0 300 300;" xml:space="preserve">
<style type="text/css">
	.st0{fill:#E22028;}
	.st1{fill:#130909;}
	.st2{fill:#FFFFFF;}
</style>
<rect x="22.62" y="64.55" class="st0" width="255.46" height="170.7"/>
<path class="st1" d="M97.5,111.45l0.26-1.23c0.03-0.05,0.05-0.1,0.08-0.18l3.57-0.83h1.25l-1.28,1.3h-1.41L97.5,111.45 M85.5,160.87
	l-1.3-3.05V120.1c0-6.55-3.6-9.6-8.01-9.6h-1.41v-5.24l1.41-1.3h0.03v5.24h1.3c4.38,0,7.98,3.05,7.98,9.6V160.87 M38.69,213.68
	c0.29-1.02,0.44-2.22,0.44-3.73V120.1c0-6.55-3.6-9.6-8.01-9.6h-1.28v-5.24l1.28-1.3h0.03v5.24h1.28c4.41,0,8.01,3.05,8.01,9.6
	v89.85l-0.91,4.75L38.69,213.68 M56.32,224.35H29.85v-5.24l1.28-1.3h0.03v5.69H57.7L56.32,224.35 M92.08,224.35h-8.63l-31.77-76.13
	v-4.56l33.07,79.83h8.61L92.08,224.35"/>
<path class="st1" d="M144.65,216.16c3.81-7.25,5.29-23.13,5.29-51.14c0-32.71-2.06-48.41-7.62-54.09l-5.82-2.16l-3.49,1.23
	c0.29-0.6,0.57-1.15,0.91-1.67l4.02-0.86l5.82,2.16c5.42,5.69,7.36,21.39,7.36,54.09c0,28.77-1.46,44.83-5.58,52.14L144.65,216.16
	 M136.52,226.51c-6.96,0-12.91-3.05-17.81-7.85c-11.63-11.76-17.19-34.45-17.19-53.65c0-19.2,5.55-41.86,17.19-53.65l1.28-1.3
	c0.05-0.05,0.1-0.1,0.16-0.16l-0.16,0.16c-11.61,11.79-17.16,34.45-17.16,53.65s5.56,41.89,17.16,53.65
	c4.93,4.8,10.88,7.85,17.97,7.85c6.7,0,12.36-2.84,17.16-7.35c0.05-0.03,0.1-0.08,0.16-0.13l-0.94,0.94
	C149.43,223.46,143.64,226.51,136.52,226.51"/>
<path class="st1" d="M200.73,110.98l0.1-1.33l2.84-0.44h1.15l-1.15,1.3h-1.43L200.73,110.98 M258.44,111.94l0.5-1.43l4.67-1.3h1.25
	l-1.28,1.3h-1.3L258.44,111.94 M207.93,157.17l-0.52-2.92l8.66-48.54l1.28-1.75h0.03L207.93,157.17 M239.33,157.19l-0.65-3.63
	l6.05-33.46c1.3-6.55-1.8-9.15-6.21-9.15h-1.28v-5.24l1.28-1.75h0.03v5.24h1.28c4.41,0,7.38,3.05,6.34,9.6L239.33,157.19
	 M202.76,224.79h-8.66l-18.6-104.69c-1.15-6.55-5.29-9.15-9.55-9.15h-1.3v-5.24l1.3-1.72v5.22h1.3c4.38,0,8.53,3.05,9.55,9.6
	l18.6,104.69h8.48L202.76,224.79 M234.01,224.79h-8.53l-9.6-53.39l0.83-4.62l10.07,56.7h8.37L234.01,224.79"/>
<path class="st1" d="M33.08,103.96h-1.93l3.13-3.23l-1.2,1.49V103.96 M78.15,103.96h-1.93l3.13-3.23l-1.2,1.49V103.96 M102.69,109.2
	h-0.03v-1.56l0.65-0.18h1.23L102.69,109.2 M96.74,115.23c0-1.33,0.18-2.58,0.52-3.7l0.23-0.08L96.74,115.23 M35.79,214.75h-1.28h1.3
	H35.79 M32.43,217.8h-1.28l2.5-2.27l-0.57,0.52v1.56L32.43,217.8 M57.75,223.49H57.7l0.03-0.03v-2.16h1.96l1.28-1.3v-5.24h-1.28h1.3
	v5.24L57.75,223.49 M93.41,223.49h-0.05l0.03-0.03v-2.16h2.06l1.02-1.02L93.41,223.49"/>
<path class="st1" d="M97.84,110.04c0.21-0.44,0.44-0.89,0.7-1.28l4.12-1.12v1.56h-1.25L97.84,110.04 M97.27,111.52
	c0.13-0.44,0.31-0.89,0.5-1.3l-0.26,1.23L97.27,111.52 M87.43,165.46l-1.93-4.59V118.8c0-6.55-3.6-9.6-7.98-9.6h-1.3v-5.24h1.93
	v3.49h1.41c4.28,0,7.88,2.61,7.88,9.15V165.46 M39.52,213.4l0.91-4.75V118.8c0-6.55-3.6-9.6-8.01-9.6h-1.28v-5.24h1.93v3.49h1.41
	c4.41,0,7.88,2.61,7.88,9.15v90.29c0,2.61-0.63,4.8-1.8,6.1L39.52,213.4 M57.7,223.49H31.15v-5.69h1.28l0.65-0.18v3.68h24.65v2.16
	L57.7,223.49 M93.35,223.49h-8.61l-33.07-79.83v-6.96l35,84.61h6.7v2.16L93.35,223.49"/>
<path class="st1" d="M120.14,109.91l0.39-0.42c-0.05,0.08-0.1,0.16-0.18,0.23C120.29,109.78,120.22,109.86,120.14,109.91
	 M128.25,142.51c0.55-16.46,1.96-26.71,4.64-32.47l0.13-0.05C130.23,115.8,128.8,126.08,128.25,142.51 M128.01,156.62
	c0,0,0,0,0-0.03C128.01,156.62,128.01,156.62,128.01,156.62 M128.01,157.35c0-0.03,0-0.03,0-0.05
	C128.01,157.32,128.01,157.32,128.01,157.35 M128.01,158.08c0-0.05,0-0.1,0-0.13C128.01,157.97,128.01,158.03,128.01,158.08
	 M128.01,158.81c0-0.08,0-0.13,0-0.21C128.01,158.68,128.01,158.76,128.01,158.81 M128.01,159.51c0-0.05,0-0.13,0-0.18
	C128.01,159.38,128.01,159.46,128.01,159.51"/>
<path class="st1" d="M145.54,215.85c4.12-7.3,5.58-23.37,5.58-52.14c0-32.71-1.93-48.41-7.35-54.09l-5.82-2.16l-4.02,0.86
	c-0.34,0.52-0.63,1.07-0.91,1.67l-0.13,0.05c0.55-1.2,1.15-2.19,1.83-3.03l5.16-1.75l5.95,2.61c5.29,5.24,7.36,21.39,7.36,53.65
	c0,31.84-1.96,47.99-6.99,54.09L145.54,215.85 M137.95,225.21c-7.09,0-13.04-3.05-17.97-7.85c-11.61-11.76-17.16-34.45-17.16-53.65
	s5.56-41.86,17.16-53.65l0.16-0.16c0.08-0.05,0.16-0.13,0.21-0.18c-10.59,12.21-15.49,33.59-15.49,51.8
	c0,19.2,5.45,41.89,17.21,53.65c4.9,4.8,10.85,8.29,17.81,8.29c5.82,0,10.82-2.11,15.23-5.61
	C150.31,222.37,144.65,225.21,137.95,225.21"/>
<path class="st1" d="M218.98,103.96h-1.62l3.05-3.29l-1.12,1.54L218.98,103.96 M240.47,103.96h-1.93l3.13-3.23l-1.2,1.49V103.96
	 M165.96,103.99v-0.03l3.29-3.42l-1.23,1.67v1.75h-2.06V103.99 M268.02,106.36l0.21-0.21v-5.66h0.03v5.66L268.02,106.36
	 M204.85,109.2h-0.03v-1.62l0.65-0.13h1.36L204.85,109.2 M264.89,109.2h-0.03v-1.51l0.81-0.23h1.12L264.89,109.2 M200.44,115.28
	c-0.29-1.62-0.29-3-0.11-4.2l0.39-0.1L200.44,115.28 M257.27,115.31c0.23-1.25,0.55-2.32,0.91-3.29l0.26-0.08L257.27,115.31
	 M238.67,153.59l-4.43-24.85l4.43,24.83V153.59 M203.94,223.49h-0.05l0.03-0.03l0.39-2.16h1.7l1.28-1.3l8.61-48.59l-8.58,48.59
	L203.94,223.49 M235.18,223.49h-0.03l0.03-0.03l0.39-2.16h1.67l1.1-1.1L235.18,223.49"/>
<path class="st1" d="M200.34,111.08c0.18-1.04,0.52-1.96,1.02-2.76l3.47-0.73v1.62h-1.15l-2.84,0.44l-0.1,1.33L200.34,111.08
	 M258.18,112.02c0.39-1.02,0.86-1.9,1.41-2.82l5.27-1.51v1.51h-1.25l-4.67,1.3l-0.5,1.43L258.18,112.02 M208.71,161.55l-0.78-4.38
	l9.44-53.2h1.62L208.71,161.55 M240.08,161.55l-1.41-7.95v-0.03l0.65,3.63l6.83-38.39c1.04-6.55-1.93-9.6-6.34-9.6h-1.28v-5.24h1.93
	v3.49h1.41c4.41,0,7.51,2.61,6.21,9.15L240.08,161.55 M203.88,223.49h-8.48l-18.6-104.69c-1.02-6.55-5.16-9.6-9.55-9.6h-1.3v-5.24
	h2.06v3.49h1.3c4.25,0,8.4,2.61,9.41,9.15l18.6,104.69h6.96l-0.39,2.16L203.88,223.49 M235.15,223.49h-8.37l-10.07-56.7l-0.83,4.62
	l1.98-11.16l10.85,61.05h6.86l-0.39,2.16L235.15,223.49"/>
<path class="st1" d="M104.62,107.46h-0.08l1.38-1.3v-5.66H79.58l-0.23,0.23l0.21-0.26h26.37v5.69L104.62,107.46 M84.2,158.05
	l-24.26-57.56H34.52l-0.23,0.23l0.21-0.26h25.45l24.26,57.35V158.05 M35.82,214.75l2.87-1.07c-0.05,0.16-0.08,0.29-0.13,0.42
	L35.82,214.75 M59.68,214.75c-4.51,0-8.01-3.05-8.01-9.6v-56.96v56.96C51.68,211.7,55.17,214.75,59.68,214.75 M33.65,215.53
	l0.83-0.78h0.03L33.65,215.53 M96.46,220.28l0.29-0.29V115.23c0,0.03,0,0.05,0,0.08v104.69L96.46,220.28"/>
<path class="st1" d="M97.76,110.22l0.03-0.16l0.05-0.03C97.81,110.12,97.79,110.17,97.76,110.22 M51.68,148.22v-4.56V148.22
	 M85.5,161.1l-1.3-3.05v-0.23l1.3,3.05V161.1 M38.56,214.1c0.05-0.13,0.08-0.26,0.13-0.42l0.83-0.29l-0.1,0.5L38.56,214.1"/>
<path class="st1" d="M102.66,107.64v-3.68H78.15v-1.75l1.2-1.49l0.23-0.23h26.34v5.66l-1.38,1.3h-1.23L102.66,107.64 M84.2,168.95
	l-27.62-64.99h-23.5v-1.75l1.2-1.49l0.23-0.23h25.43l24.25,57.56V168.95 M33.08,217.62v-1.56l0.57-0.52l0.86-0.78h1.3l2.74-0.65
	c-0.29,0.86-0.7,1.64-1.23,2.4L33.08,217.62 M59.68,221.3h-1.96v-3.49h-1.41c-4.38,0-8.01-2.61-8.01-9.15v-68.49l3.36,8.03v56.96
	c0,6.55,3.49,9.6,8.01,9.6h1.28v5.24L59.68,221.3 M95.44,221.3h-2.06V118.8c0-3.05,0.78-5.24,1.93-6.55l1.96-0.73
	c-0.34,1.12-0.52,2.37-0.52,3.7v104.77l-0.29,0.29L95.44,221.3"/>
<path class="st1" d="M93.38,221.3h-6.7l-35-84.61v11.5l-3.36-8.03v68.49c0,6.55,3.63,9.15,8.01,9.15h1.41v3.49H33.08v-3.68
	l4.25-1.12c0.52-0.76,0.94-1.54,1.23-2.4l0.86-0.21l0.1-0.5l1.04-0.39c1.17-1.3,1.8-3.49,1.8-6.1v-90.29c0-6.55-3.47-9.15-7.88-9.15
	h-1.41v-3.49h23.5l27.62,64.99v-10.9l1.3,3.05v-0.23l1.93,4.59v-48.85c0-6.55-3.6-9.15-7.88-9.15h-1.41v-3.49h24.52v3.68l-4.12,1.12
	c-0.26,0.39-0.5,0.83-0.7,1.28l-0.05,0.03l-0.03,0.16c-0.18,0.42-0.37,0.86-0.5,1.3l-1.96,0.73c-1.15,1.3-1.93,3.49-1.93,6.55V221.3
	"/>
<path class="st1" d="M120.53,109.49c0.5-0.55,1.02-1.1,1.54-1.62l1.25-1.3L120.53,109.49 M128.01,156.59
	c0.03-5.14,0.1-9.83,0.23-14.08C128.12,146.76,128.04,151.45,128.01,156.59 M128.01,157.3c0-0.21,0-0.44,0-0.68
	C128.01,156.85,128.01,157.09,128.01,157.3 M128.01,157.95c0-0.21,0-0.42,0-0.6C128.01,157.53,128.01,157.74,128.01,157.95
	 M128.01,158.6c0-0.16,0-0.34,0-0.52C128.01,158.26,128.01,158.44,128.01,158.6 M128.01,159.33c0-0.18,0-0.34,0-0.52
	C128.01,158.99,128.01,159.15,128.01,159.33 M128.01,160.22c0-0.23,0-0.47,0-0.7C128.01,159.75,128.01,159.98,128.01,160.22
	 M141.32,217.36l3.34-1.2c-0.08,0.18-0.18,0.37-0.26,0.52L141.32,217.36 M155.27,217.72l0.36-0.37c0.03-0.03,0.08-0.08,0.1-0.1
	l3.26-2.95c11.61-11.79,17.29-34.45,17.29-54.09c0,19.64-5.69,42.3-17.29,54.09l-1.3,1.3C156.89,216.37,156.1,217.07,155.27,217.72"
	/>
<path class="st1" d="M144.39,216.68c0.08-0.16,0.18-0.34,0.26-0.52l0.89-0.31c-0.1,0.23-0.23,0.44-0.37,0.65L144.39,216.68
	 M155.11,217.86c0.18-0.16,0.34-0.31,0.52-0.5l0.1-0.1c-0.03,0.03-0.08,0.08-0.1,0.1l-0.37,0.37
	C155.22,217.78,155.16,217.83,155.11,217.86"/>
<path class="st1" d="M155.74,217.26c11.68-11.81,17.32-34.4,17.32-53.54c0-19.64-5.53-42.3-17.42-54.09
	c-4.9-4.8-10.72-7.41-17.68-7.41c-6.94,0-12.75,2.92-17.6,7.51c0.08-0.08,0.13-0.16,0.18-0.23l2.79-2.92
	c4.96-4.8,10.88-7.85,18-7.85c6.96,0,12.78,3.05,17.68,7.43c11.76,12.21,17.29,34.87,17.29,54.07c0,19.64-5.69,42.3-17.29,54.09
	L155.74,217.26 M137.95,220.41l-5.82-2.19c-5.42-5.66-7.48-21.8-7.48-54.51c0-31.4,1.93-47.1,6.83-53.2l1.41-0.47
	c-2.69,5.76-4.1,16.01-4.64,32.47c-0.13,4.25-0.21,8.95-0.23,14.08c0,0.03,0,0.03,0,0.03c0,0.23,0,0.47,0,0.68c0,0.03,0,0.03,0,0.05
	c0,0.18,0,0.39,0,0.6c0,0.03,0,0.08,0,0.13c0,0.18,0,0.37,0,0.52c0,0.08,0,0.13,0,0.21c0,0.18,0,0.34,0,0.52c0,0.05,0,0.13,0,0.18
	c0,0.23,0,0.47,0,0.7c0,33.15,1.93,49.29,7.35,54.53l5.95,2.61l3.08-0.68c-0.44,0.76-0.91,1.43-1.41,1.98L137.95,220.41"/>
<path class="st1" d="M132.89,110.04l-1.41,0.47c-4.9,6.1-6.83,21.8-6.83,53.2c0,32.71,2.06,48.85,7.48,54.51l5.82,2.19l5.03-1.75
	c0.5-0.55,0.96-1.23,1.41-1.98l0.78-0.18c0.13-0.21,0.26-0.42,0.37-0.65l0.65-0.23c5.03-6.1,6.99-22.25,6.99-54.09
	c0-32.26-2.06-48.41-7.35-53.65l-5.95-2.61l-5.16,1.75C134.04,107.85,133.44,108.84,132.89,110.04 M139.88,223.46
	c-6.96,0-12.91-3.49-17.81-8.29c-11.76-11.76-17.21-34.45-17.21-53.65c0-18.2,4.9-39.59,15.49-51.8c4.85-4.59,10.67-7.51,17.6-7.51
	c6.96,0,12.78,2.61,17.68,7.41c11.89,11.79,17.42,34.45,17.42,54.09c0,19.14-5.63,41.73-17.32,53.54l-0.1,0.1
	c-0.18,0.18-0.34,0.34-0.52,0.5C150.7,221.35,145.7,223.46,139.88,223.46"/>
<path class="st1" d="M241.67,100.73l0.21-0.26h26.34v0.03h-26.32L241.67,100.73 M206.91,107.46h-0.08l1.49-1.3v-5.66h-38.99
	l-0.08,0.05l0.08-0.08h38.99v5.69L206.91,107.46 M266.95,107.46h-0.16l1.23-1.1L266.95,107.46 M234.24,128.74l-5.01-28.25h-8.63
	l-0.18,0.18l0.16-0.21h8.66L234.24,128.74 M207.4,154.27l-6.96-38.96v-0.03v0.03l6.96,38.94V154.27 M238.34,220.2l0.21-0.21
	l18.73-104.69l-18.73,104.69L238.34,220.2"/>
<polyline class="st1" points="207.93,157.19 207.4,154.27 207.4,154.24 207.93,157.17 207.93,157.19 "/>
<path class="st1" d="M204.82,107.59v-3.63h-36.8v-1.75l1.23-1.67l0.08-0.05h38.99v5.66l-1.49,1.3h-1.36L204.82,107.59
	 M264.86,107.69v-3.73h-24.39v-1.75l1.2-1.49l0.23-0.23h26.32v5.66l-0.21,0.21l-1.23,1.1h-1.12L264.86,107.69 M205.47,165.02
	l-8.27-46.21c-0.52-3.05-0.13-5.24,0.78-6.99l2.35-0.73c-0.18,1.2-0.18,2.58,0.1,4.2v0.03l6.96,38.96L205.47,165.02 M236.59,165.02
	L226,103.96h-7.02l0.31-1.75l1.12-1.54l0.18-0.18h8.63l5.01,28.25l4.43,24.85L236.59,165.02 M206,221.3h-1.69l10.2-57.59l1.38,7.69
	l-8.61,48.59L206,221.3 M237.24,221.3h-1.67l18.33-102.5c0.63-2.63,1.28-4.8,2.45-6.1l1.83-0.68c-0.37,0.96-0.68,2.03-0.91,3.29
	l-18.73,104.69l-0.21,0.21L237.24,221.3"/>
<path class="st1" d="M235.57,221.3h-6.86l-10.85-61.05l-1.98,11.16l-1.38-7.69l-10.2,57.59h-6.96l-18.6-104.69
	c-1.02-6.55-5.16-9.15-9.41-9.15h-1.3v-3.49h36.8v3.63l-3.47,0.73c-0.5,0.81-0.83,1.72-1.02,2.76l-2.35,0.73
	c-0.91,1.75-1.3,3.94-0.78,6.99l8.27,46.21l1.93-10.75l0.52,2.92v-0.03l0.78,4.38l10.28-57.59H226l10.59,61.05l2.09-11.42l1.41,7.95
	l8.01-44.94c1.3-6.55-1.8-9.15-6.21-9.15h-1.41v-3.49h24.39v3.73l-5.27,1.51c-0.55,0.91-1.02,1.8-1.41,2.82l-1.83,0.68
	c-1.17,1.3-1.83,3.47-2.45,6.1L235.57,221.3"/>
<path class="st2" d="M104.62,106.15c-4.25,0-7.88,2.61-7.88,9.15v104.69h-8.66l-36.41-87.68v72.84c0,6.55,3.49,9.6,8.01,9.6h1.28
	v5.24H34.49v-5.24h1.3c4.38,0,7.88-3.05,7.88-9.6v-89.85c0-6.55-3.49-9.15-7.88-9.15h-1.3v-5.66h25.46l28.79,68.46v-53.65
	c0-6.55-3.49-9.15-7.75-9.15h-1.44v-5.66h26.37v5.66H104.62"/>
<path class="st2" d="M147.11,106.15l-5.79-2.19l-5.95,2.19c-5.42,5.66-7.36,21.36-7.36,54.07c0,33.15,1.93,49.29,7.36,54.53
	l5.95,2.61l5.79-2.61c5.42-5.24,7.38-21.39,7.38-54.53C154.49,127.51,152.53,111.81,147.11,106.15 M159,214.31
	c-4.9,4.8-10.72,7.85-17.68,7.85c-7.12,0-13.04-3.05-17.97-8.29c-11.74-11.76-17.16-34.45-17.16-53.65
	c0-19.2,5.42-41.86,17.16-53.65c4.93-4.8,10.85-7.85,17.97-7.85c6.96,0,12.78,3.05,17.68,7.43c11.76,12.21,17.29,34.87,17.29,54.07
	C176.29,179.86,170.76,202.52,159,214.31"/>
<path class="st2" d="M266.95,106.15c-4.51,0-8.53,2.61-9.68,9.15l-18.73,104.69h-8.53l-11.37-64.13l-11.37,64.13h-8.5l-18.6-104.69
	c-1.04-6.55-5.16-9.15-9.57-9.15h-1.28v-5.66h38.99v5.66h-1.41c-4.54,0-7.51,2.61-6.47,9.15l8.79,49.74l11.35-64.55h8.66
	l11.24,64.55l9.05-49.74c1.02-6.55-1.96-9.15-6.34-9.15h-1.3v-5.66h26.34v5.66H266.95"/>
<rect x="34.72" y="75.17" class="st2" width="233.37" height="18.62"/>
</svg>
