<?xml version="1.0" encoding="utf-8"?>
<!-- Generator: Adobe Illustrator 23.0.1, SVG Export Plug-In . SVG Version: 6.00 Build 0)  -->
<svg version="1.1" id="Layer_1" xmlns="http://www.w3.org/2000/svg" xmlns:xlink="http://www.w3.org/1999/xlink" x="0px" y="0px"
	 viewBox="0 0 300 300" style="enable-background:new 0 0 300 300;" xml:space="preserve">
<style type="text/css">
	.st0{clip-path:url(#SVGID_2_);fill:#ED1C24;}
	.st1{clip-path:url(#SVGID_4_);fill:#FFFFFF;}
</style>
<g>
	<defs>
		<rect id="SVGID_1_" x="16.61" y="91.35" width="266.76" height="115.95"/>
	</defs>
	<clipPath id="SVGID_2_">
		<use xlink:href="#SVGID_1_"  style="overflow:visible;"/>
	</clipPath>
	<rect x="16.61" y="91.35" class="st0" width="266.75" height="115.95"/>
</g>
<g>
	<defs>
		<rect id="SVGID_3_" x="16.55" y="91.35" width="266.8" height="116"/>
	</defs>
	<clipPath id="SVGID_4_">
		<use xlink:href="#SVGID_3_"  style="overflow:visible;"/>
	</clipPath>
	<rect x="60.83" y="149.2" class="st1" width="7.84" height="45.82"/>
	<polyline class="st1" points="196.11,132.85 184.47,99.56 173.94,99.56 173.94,145.41 181.44,145.41 181.44,111.7 193.25,145.41 
		203.6,145.41 203.6,99.56 196.11,99.56 196.11,132.85 	"/>
	<path class="st1" d="M147.84,99.25c-12.8,0-23.22,10.42-23.22,23.22c0,12.8,10.43,23.22,23.22,23.22
		c12.8,0,23.22-10.42,23.22-23.22C171.06,109.66,160.64,99.25,147.84,99.25 M147.84,138.22c-8.43,0-15.3-7.07-15.3-15.75
		c0-8.69,6.87-15.76,15.3-15.76s15.3,7.07,15.3,15.76C163.14,131.16,156.27,138.22,147.84,138.22"/>
	<polyline class="st1" points="32.33,145.42 40.16,145.42 40.16,106.91 49.72,106.91 49.72,99.58 22.76,99.58 22.76,106.91 
		32.33,106.91 32.33,145.42 	"/>
	<path class="st1" d="M92.41,122.47c0-12.8-10.43-23.22-23.22-23.22c-12.8,0-23.22,10.42-23.22,23.22
		c0,12.8,10.43,23.22,23.22,23.22C81.98,145.69,92.41,135.27,92.41,122.47 M69.19,138.22c-8.43,0-15.3-7.07-15.3-15.75
		c0-8.69,6.87-15.76,15.3-15.76c8.43,0,15.3,7.07,15.3,15.76C84.48,131.16,77.62,138.22,69.19,138.22"/>
	<polyline class="st1" points="234.63,99.58 207.64,99.58 207.64,106.91 217.21,106.91 217.21,145.42 225.06,145.42 225.06,106.91 
		234.63,106.91 234.63,99.58 	"/>
	<path class="st1" d="M254.09,99.25c-12.82,0-23.22,10.42-23.22,23.22c0,12.8,10.4,23.22,23.22,23.22c12.8,0,23.2-10.42,23.2-23.22
		C277.29,109.66,266.89,99.25,254.09,99.25 M254.09,138.22c-8.46,0-15.32-7.07-15.32-15.75c0-8.69,6.87-15.76,15.32-15.76
		c8.43,0,15.3,7.07,15.3,15.76C269.39,131.16,262.52,138.22,254.09,138.22"/>
	<polyline class="st1" points="73.55,195.02 81.4,195.02 81.4,175.14 98.32,175.14 98.32,167.8 81.4,167.8 81.4,156.52 
		98.82,156.52 98.82,149.19 73.55,149.19 73.55,195.02 	"/>
	<path class="st1" d="M119.77,145.41h8.96l-11.89-21.36c3.96-2.18,6.41-6.5,6.41-11.25c0-7.93-6.29-13.24-13.63-13.24H95.24v45.86
		h7.83v-19.15h6.74L119.77,145.41 M103.06,118.94v-12h6.03c3.99,0,6.23,2.52,6.23,5.86c0,3.33-2.3,6.14-6.23,6.14H103.06z"/>
	<polyline class="st1" points="40.16,149.2 32.33,149.2 32.33,195.02 56.97,195.02 56.97,187.68 40.16,187.68 40.16,149.2 	"/>
	<polyline class="st1" points="103.09,195.02 130.73,195.02 130.73,187.68 110.94,187.68 110.94,175.14 129.34,175.14 
		129.34,167.81 110.94,167.81 110.94,156.53 130.73,156.53 130.73,149.2 103.09,149.2 103.09,195.02 	"/>
</g>
</svg>
