<svg xmlns="http://www.w3.org/2000/svg" viewBox="0 0 226.47 226.47"><defs><style>.cls-1{fill:#fff;}.cls-2{fill:none;}</style></defs><g id="Layer_2" data-name="Layer 2"><g id="Programs"><g id="White_Reverse" data-name="White Reverse"><g id="Animate"><path class="cls-1" d="M87.31,60.35c-.09-.47-.47-.76-1.23-.76H61.53a1,1,0,0,0-.76,1,33.63,33.63,0,0,1-.56,6.14c-.38,1.23-.67,2-1,2.93l-30.5,87.16c-.29,1.14,0,1.71,1,1.71H47.74a1.65,1.65,0,0,0,1.79-1.33l7.18-22.19h35l7.74,22.38a1.42,1.42,0,0,0,1.51,1h19.74c1,0,1.23-.47,1-1.51ZM62.19,116.26c1.42-4,2.83-8.41,4.15-13.23,1.52-4.72,2.93-9.44,4.35-14A116,116,0,0,0,73.9,76.87h.19c.66,2.27,1.32,4.73,2.08,7.37s1.6,5.48,2.55,8.41,1.79,5.76,2.73,8.69,1.7,5.57,2.55,8.12,1.61,4.81,2.18,6.8Z"/><path class="cls-1" d="M196.29,97.37a22.71,22.71,0,0,0-14.35-14A28.36,28.36,0,0,0,173.06,82a36.52,36.52,0,0,0-11.43,1.89,31.59,31.59,0,0,0-10,5.86,17.94,17.94,0,0,0-.56-3.12c-.19-.75-.48-1.51-.66-2.08a1.45,1.45,0,0,0-.76-1,3.87,3.87,0,0,0-1.51-.29H132.92a1.59,1.59,0,0,0-.94.29.91.91,0,0,0-.19.94c.1,1.13.19,2.93.28,4.82s.1,3.87.19,6,.1,4.06.1,5.76v56.1c-.1.09-.1.19.09.38a1.18,1.18,0,0,0,1.32,1h17.95c.85,0,1.23-.38,1.23-1.33V105.11a19.82,19.82,0,0,1,5.66-3.59,18.71,18.71,0,0,1,7.18-1.32,10.36,10.36,0,0,1,10.29,6.42,22.14,22.14,0,0,1,1.8,8.22v42.69a1.31,1.31,0,0,0,1.51,1.13l17.75-.19c.85,0,1.23-.38,1.23-1.32V112.48C198.37,106.34,197.8,101.24,196.29,97.37Z"/><rect class="cls-2" width="226.47" height="226.47"/></g></g></g></g></svg>