<svg xmlns="http://www.w3.org/2000/svg" viewBox="0 0 226.47 226.47"><defs><style>.cls-1{fill:#fff;}.cls-2{fill:none;}</style></defs><g id="Layer_2" data-name="Layer 2"><g id="Programs"><g id="White_Reverse" data-name="White Reverse"><g id="Audition"><path class="cls-1" d="M84.83,60.2c-.09-.53-.62-.8-1.24-.8H59.11a1,1,0,0,0-.8,1.06,27.51,27.51,0,0,1-.79,6,28.89,28.89,0,0,0-1,3.09L26.14,156.91c-.27,1.15,0,1.68,1.06,1.68H45a1.64,1.64,0,0,0,1.76-1.33L53.89,135H89l8,22.55a1.44,1.44,0,0,0,1.51,1.06h19.71c1,0,1.24-.45,1-1.51Zm-25.46,56A128.3,128.3,0,0,0,63.44,103c1.5-4.68,2.92-9.46,4.33-14A122.46,122.46,0,0,0,71,76.82h.18c.71,2.21,1.33,4.68,2.12,7.33s1.59,5.49,2.57,8.4,1.76,5.75,2.74,8.67,1.68,5.56,2.56,8.13,1.68,4.86,2.21,6.81Z"/><path class="cls-1" d="M191.88,154.08c-.09-1.5-.17-3.27-.26-5.22s-.09-4.24-.09-6.8V84.15l.09-.26a.92.92,0,0,0-1.06-.8h-18c-.88,0-1.32.45-1.32,1.06v53.66a22.22,22.22,0,0,1-5.92,3.1,18.27,18.27,0,0,1-6.46,1.15c-4.24,0-7.95-1.24-9.72-3.63s-2.74-5.66-2.74-9.81V84a1.08,1.08,0,0,0-1.24-1h-18.3a1.08,1.08,0,0,0-1,1.23v46.85a42.78,42.78,0,0,0,1.86,13.44,23.32,23.32,0,0,0,5.3,9.19,20.11,20.11,0,0,0,8,5.22,30.77,30.77,0,0,0,10.26,1.59,38.35,38.35,0,0,0,10.52-1.41,26.87,26.87,0,0,0,10.69-5.84,7.17,7.17,0,0,0,.18,1.95c.18.79.36,1.59.53,2.38a1.66,1.66,0,0,0,1.77,1.06h16.18c.79,0,1.15-.35,1.06-1.23S192.06,155.58,191.88,154.08Z"/><rect class="cls-2" width="226.47" height="226.47"/></g></g></g></g></svg>