<svg xmlns="http://www.w3.org/2000/svg" viewBox="0 0 226.47 226.47"><defs><style>.cls-1{fill:#fff;}.cls-2{fill:none;}</style></defs><g id="Layer_2" data-name="Layer 2"><g id="Programs"><g id="White_Reverse" data-name="White Reverse"><g id="Behance"><path class="cls-1" d="M106.54,109.13a32.53,32.53,0,0,0-6.05-4.16,17.13,17.13,0,0,0,4.06-3.78,20.63,20.63,0,0,0,3.69-6.42,23.78,23.78,0,0,0,1.51-8.88,27.94,27.94,0,0,0-1.32-8.4,21.52,21.52,0,0,0-5.29-8.78,29.88,29.88,0,0,0-11.34-6.9C86.89,60,80.28,59.07,72,59.07c-3.49,0-7.27,0-11.43.1s-7.93.09-11.52.19-6.23.09-7.93.18c-.66.1-.94.57-.94,1.52v96.51c0,.85.37,1.33,1.13,1.33,1.42,0,3.12,0,5.1.09s4.34.09,7,.19,5.57.09,8.78.09h10c8.88,0,16.43-1.32,22.76-3.87a32.5,32.5,0,0,0,14.64-10.86,26.94,26.94,0,0,0,5.1-16.15,26.42,26.42,0,0,0-2.46-11.71A23.28,23.28,0,0,0,106.54,109.13ZM60.64,77.2c1.23,0,2.36-.09,3.4,0,1-.09,2.27-.09,3.59-.09h4.44a30,30,0,0,1,9.53,1.32,12.23,12.23,0,0,1,5.67,3.87,10.73,10.73,0,0,1,2,6.71,13.31,13.31,0,0,1-1.32,6,15.06,15.06,0,0,1-3.3,4.06A29.46,29.46,0,0,0,79,98.55c-2.64-.1-5.29-.19-8-.19H60.64ZM90.29,136a14.35,14.35,0,0,1-7.17,4.25,39.76,39.76,0,0,1-11.05,1.32c-2.46,0-4.54,0-6.24-.09s-3.49-.1-5.19-.19V116.21H73.77a54.82,54.82,0,0,1,5.57.28,31.78,31.78,0,0,1,4.15.76c3.5.94,6,2.45,7.27,4.44a12.83,12.83,0,0,1,2,7.17A10.86,10.86,0,0,1,90.29,136Z"/><path class="cls-1" d="M191.34,103.46a34.69,34.69,0,0,0-5.66-10.77,26.09,26.09,0,0,0-9.92-7.84,34.14,34.14,0,0,0-14.64-2.92,36.41,36.41,0,0,0-15.77,3.3,34.32,34.32,0,0,0-11.43,9,38.63,38.63,0,0,0-7.08,12.94,49,49,0,0,0-.38,28.81A34.74,34.74,0,0,0,133,148.32a31.76,31.76,0,0,0,11.9,9c4.91,2.17,11,3.3,18.13,3.3a63.44,63.44,0,0,0,13.41-1.13,43.47,43.47,0,0,0,9.92-3.3,2.31,2.31,0,0,0,.66-.66,5,5,0,0,0,.19-1.14V139.91c0-.94-.29-1.13-.76-.75a42.2,42.2,0,0,1-8.88,2.64,56.28,56.28,0,0,1-9.82.85,29.13,29.13,0,0,1-12.09-2.17,15,15,0,0,1-6.89-5.67,19.14,19.14,0,0,1-2.93-8h29.94c2.46,0,4.72-.1,6.89-.1a44.5,44.5,0,0,0,5.48-.28c1.51-.1,2.55-.19,3.12-.19a1.41,1.41,0,0,0,1.32-1.23c.1-.85.19-2.17.38-4s.19-3.77.19-6A37.1,37.1,0,0,0,191.34,103.46Zm-18,8.22a16.43,16.43,0,0,1-2.18.18c-1.13.1-2.92.1-5.38.1H145.82a18.78,18.78,0,0,1,2.08-6.23,13.28,13.28,0,0,1,12.56-7.18,12.5,12.5,0,0,1,12.28,8.69,10.73,10.73,0,0,1,.57,3.49Z"/><rect class="cls-2" width="226.47" height="226.47"/></g></g></g></g></svg>