<svg xmlns="http://www.w3.org/2000/svg" viewBox="0 0 226.47 226.47"><defs><style>.cls-1{fill:#fff;}.cls-2{fill:none;}</style></defs><g id="Layer_2" data-name="Layer 2"><g id="Programs"><g id="White_Reverse" data-name="White Reverse"><g id="Creative_Cloud" data-name="Creative Cloud"><path class="cls-1" d="M181.37,69.17a62.8,62.8,0,0,0-46.48-20.09c-17.2,0-34.68,7.37-45.86,19.29A55.52,55.52,0,0,0,82.85,68c-33.71,0-54.57,28.35-54.57,54.62a56.24,56.24,0,0,0,15.31,38.13,53.44,53.44,0,0,0,39.26,17h52c35.31,0,64-29,64-64.55A65.39,65.39,0,0,0,181.37,69.17ZM81.88,168.44a45.26,45.26,0,1,1,29.86-79.08l.22.19,18.75,19.24A8.06,8.06,0,1,1,119.14,120l-18.61-19.09a28.86,28.86,0,0,0-47.7,21.82c0,15.85,13.5,29.25,29.49,29.25L86,152l0,.1c5.32,7.34,20.13,16.32,20.13,16.32Zm92.71-16.28a53.74,53.74,0,0,1-38.76,16.59c-13.88,0-28.06-6.21-38.89-17L72.16,126.89a8.09,8.09,0,0,1,5.78-13.73,8,8,0,0,1,5.78,2.44l24.61,24.67c7.81,7.83,17.83,12.32,27.5,12.32a37.59,37.59,0,0,0,27.24-11.77,40,40,0,0,0,11.32-27.9,38.73,38.73,0,0,0-38.7-38.68c-8.14,0-14.86,1.57-21.43,6.25-.07-.06-1.85-1.24-3.86-2.46-1.25-.76-2.59-1.51-3.65-2.09s-4.54-2.29-6.54-3.12c-.5-.2-1.15-.44-1.42-.53l.06,0c10.2-9.54,22.89-14.18,36.84-14.18a54.91,54.91,0,0,1,54.86,54.84A56.13,56.13,0,0,1,174.59,152.16Z"/><rect class="cls-2" width="226.47" height="226.47"/></g></g></g></g></svg>