<svg xmlns="http://www.w3.org/2000/svg" viewBox="0 0 226.47 226.47"><defs><style>.cls-1{fill:#fff;}.cls-2{fill:none;}</style></defs><g id="Layer_2" data-name="Layer 2"><g id="Programs"><g id="White_Reverse" data-name="White Reverse"><g id="Dimension"><path class="cls-1" d="M94,65.35c-7.93-4.15-18-6.23-30.22-6.23-4.54,0-8.69,0-12.66.09s-7.36.1-10.29.19-5.2.1-6.71.19H34a1.15,1.15,0,0,0-1,1.23v96.71c0,.94.28,1.51.94,1.51,1.7.09,4.35.09,7.75.19s7.18.09,11.14.09H64.12a64.72,64.72,0,0,0,15.39-1.89,53.65,53.65,0,0,0,14.64-6,51,51,0,0,0,12.27-10.1,45.92,45.92,0,0,0,8.5-14.55A56.13,56.13,0,0,0,118,107.47a51.42,51.42,0,0,0-6-25A42.64,42.64,0,0,0,94,65.35Zm-.29,56.76A28.28,28.28,0,0,1,87,132.59,27.17,27.17,0,0,1,76.58,139a38.67,38.67,0,0,1-13.5,2.17c-1.23,0-2.36,0-3.31-.1s-1.89-.09-2.83-.19-1.89-.09-3-.09v-63a40.32,40.32,0,0,1,4.72-.1c1.41-.09,3.11-.09,5.1-.09a44.4,44.4,0,0,1,13.12,1.79,26.39,26.39,0,0,1,10.3,5.67,24.18,24.18,0,0,1,6.61,9.54A35.81,35.81,0,0,1,96,108,40.2,40.2,0,0,1,93.67,122.11Z"/><path class="cls-1" d="M191.61,97.37a22.7,22.7,0,0,0-14.36-14A28.25,28.25,0,0,0,168.38,82,36.42,36.42,0,0,0,157,83.86a31.59,31.59,0,0,0-10,5.86,14.79,14.79,0,0,0-.57-2.83c-.19-.76-.47-1.52-.66-2.08a1.47,1.47,0,0,0-.75-1,4,4,0,0,0-1.52-.28H127.77a1.61,1.61,0,0,0-1,.28.91.91,0,0,0-.19.94c.1,1.14.19,2.65.29,4.54s.09,3.87.19,6,.09,4.06.09,5.76V157.9a1.17,1.17,0,0,0,1.32,1H147c.85,0,1.23-.37,1.23-1.32V105a19.87,19.87,0,0,1,5.67-3.59,18.47,18.47,0,0,1,7.17-1.32,10.36,10.36,0,0,1,10.3,6.42,19.64,19.64,0,0,1,1.32,7.74v43.54a1.3,1.3,0,0,0,1.51,1.13h18.42c.85,0,1.23-.37,1.23-1.32V112.48C193.88,106.34,193.12,101.24,191.61,97.37Z"/><rect class="cls-2" width="226.47" height="226.47"/></g></g></g></g></svg>