<svg xmlns="http://www.w3.org/2000/svg" viewBox="0 0 226.47 226.47"><defs><style>.cls-1{fill:#fff;}.cls-2{fill:none;}</style></defs><g id="Layer_2" data-name="Layer 2"><g id="Programs"><g id="White_Reverse" data-name="White Reverse"><g id="Dreamweaver"><path class="cls-1" d="M79.29,65.26C71.74,61.1,62.1,59,50.58,59c-4.25,0-8.22,0-12,.09s-7,.09-9.82.19-4.92.09-6.33.19h-.1a1.13,1.13,0,0,0-.94,1.23v96.7c0,.95.28,1.51.94,1.51,1.61.1,4.06.1,7.37.19s6.8.1,10.58.1H51a58.29,58.29,0,0,0,14.54-1.89,52.06,52.06,0,0,0,13.88-6A49.2,49.2,0,0,0,91,141.28a45.82,45.82,0,0,0,8.12-14.54,58.44,58.44,0,0,0,2.93-19.36c0-9.45-1.89-17.76-5.67-25A41.4,41.4,0,0,0,79.29,65.26ZM79.1,122a29,29,0,0,1-6.33,10.48,25.23,25.23,0,0,1-9.91,6.42A35.27,35.27,0,0,1,50,141.09c-1.13,0-2.17,0-3.11-.09s-1.8-.1-2.65-.19-1.89-.09-2.92-.09v-63c1.6-.09,3.11-.18,4.43-.18s2.93-.1,4.82-.1a39.93,39.93,0,0,1,12.47,1.8A24.64,24.64,0,0,1,79.2,94.53a37.68,37.68,0,0,1,2.17,13.32A45,45,0,0,1,79.1,122Z"/><path class="cls-1" d="M207.54,83.2H191c-.66,0-1,.38-1.23,1.23-1.32,5.57-2.45,10.77-3.49,15.49s-2,9.06-2.64,12.94-1.42,7.36-2,10.57-1.13,6-1.51,8.6-.75,4.81-1.23,6.7h-.28a41.78,41.78,0,0,0-.66-4.81c-.38-2-.85-4.35-1.23-7.28s-1-6.32-1.79-10.29-1.8-8.69-2.83-13.88-2.46-11.24-4.07-18.13c-.09-.67-.37-1-.94-1H148.61c-.57,0-1,.09-1,.28a3.07,3.07,0,0,0-.38,1.23c-1.79,6.7-3.3,12.65-4.34,17.85s-2.08,9.82-2.93,13.78-1.51,7.37-2.08,10.3-1,5.29-1.41,7.08c-.29,1.51-.48,2.93-.66,4.44h-.29c-.28-1.7-.66-4-1.13-6.61s-1.13-6.14-1.8-10.39-1.7-9.35-2.92-15.39-2.84-13.22-4.72-21.53c-.1-.67-.57-1-1.42-1H105.64c-1,0-1.42.38-1.13,1.23l18.41,73a3.93,3.93,0,0,0,.66,1,2.08,2.08,0,0,0,1.33.28h17.65c.85,0,1.33-.47,1.52-1.51,1.41-5.57,2.73-10.76,3.87-15.49s2.26-9.06,3.21-13,1.89-7.93,2.64-11.81,1.7-7.93,2.65-12.08h.09c.29,2,.76,4.34,1.23,7.18s1.23,6.23,2,10.29,1.8,9,3,14.83,2.74,12.56,4.54,20.11a2.94,2.94,0,0,0,.57,1.13,1.25,1.25,0,0,0,1.13.38h17.66c.47.1.85-.09.85-.56a2.3,2.3,0,0,0,.56-1l20.4-72.82C208.67,83.67,208.39,83.2,207.54,83.2Z"/><rect class="cls-2" width="226.47" height="226.47"/></g></g></g></g></svg>