<svg xmlns="http://www.w3.org/2000/svg" viewBox="0 0 226.47 226.47"><defs><style>.cls-1{fill:#fff;}.cls-2{fill:none;}</style></defs><g id="Layer_2" data-name="Layer 2"><g id="Programs"><g id="White_Reverse" data-name="White Reverse"><g id="Fonts"><path class="cls-1" d="M155.87,65.26c-2.29,0-3.44-1.71-4.15-4.15-2.43-9.15-5.58-11.86-7.43-11.86s-4.73,3.43-7.87,10.58c-4.15,9-6.88,18.63-9.46,28.06h16.31c1,2,.14,6.3-2.29,7.44H124.82c-5.29,17.73-9.71,34.85-15,51.58-3,9.44-6.29,18.45-10.44,24.17-4.57,6.44-13.15,12.59-23.45,12.59-7.29,0-14.44-3.44-14.44-11,0-4.71,4.86-9.15,8.72-9.15a4.34,4.34,0,0,1,4,2.29c3.58,6.44,7,10.15,8.58,10.15s2.86-2.14,5.44-11.44L107,95.33H93.5c-1-3,.43-6.72,2.15-7.44h13.44c2.57-8.29,5.59-16.62,9.88-24.2C125.41,52.1,135.7,43,149.86,43,160.59,43,165,48.1,165,54.68,164.88,61.69,158.73,65.26,155.87,65.26Z"/><rect class="cls-2" width="226.47" height="226.47"/></g></g></g></g></svg>