<svg xmlns="http://www.w3.org/2000/svg" viewBox="0 0 226.47 226.47"><defs><style>.cls-1{fill:#fff;}.cls-2{fill:none;}</style></defs><g id="Layer_2" data-name="Layer 2"><g id="Programs"><g id="White_Reverse" data-name="White Reverse"><g id="Fresco"><path class="cls-1" d="M121.73,60.63a4.1,4.1,0,0,0-.47-2.07,1.85,1.85,0,0,0-1-.19H60c-.66,0-1,.75-1,2.17v97.18a1.33,1.33,0,0,0,.19,1A1.38,1.38,0,0,0,60,159H79a1.08,1.08,0,0,0,1-1.23V120.6l38.06-.09h.28a1.06,1.06,0,0,0,.94-1.23V102.56c0-.66-.37-1-1.32-1h-38V78.39h42.4a1.36,1.36,0,0,0,.94-.38.89.89,0,0,0,.19-.85Z"/><path class="cls-1" d="M176.7,82a28.2,28.2,0,0,0-14.08,3.4,34.9,34.9,0,0,0-10.1,8.12c0-1.23-.09-2.36-.19-3.4s-.28-2-.47-2.93A6,6,0,0,0,151.1,85a2.12,2.12,0,0,0-2-1.51H132.59c-.09-.1-.28-.1-.28,0a.86.86,0,0,0-.66,1q.42,3.1.57,6.23c.09,2.45.09,4.91.18,7.37s.1,4.81.1,7.08v52.7A1.31,1.31,0,0,0,134,159h18.32c.85,0,1.23-.38,1.23-1.32V109.55a15.87,15.87,0,0,1,5.1-3.49,38.4,38.4,0,0,1,17.85-3.21c1,0,1.51-.29,1.51-1V83A1.17,1.17,0,0,0,176.7,82Z"/><rect class="cls-2" width="226.47" height="226.47"/></g></g></g></g></svg>