<svg xmlns="http://www.w3.org/2000/svg" viewBox="0 0 226.47 226.47"><defs><style>.cls-1{fill:#fff;}.cls-2{fill:none;}</style></defs><g id="Layer_2" data-name="Layer 2"><g id="Programs"><g id="White_Reverse" data-name="White Reverse"><g id="Illustrator"><path class="cls-1" d="M105.19,60.06c-.1-.47-.48-.75-1.23-.75H79.5a.94.94,0,0,0-.76,1,33.71,33.71,0,0,1-.56,6.14c-.38,1.13-.66,2.17-1,3.11L46.82,157.15c-.28,1.13,0,1.7,1,1.7H65.62a1.65,1.65,0,0,0,1.79-1.32l7.18-22.2h35.13l7.74,22.48a1.43,1.43,0,0,0,1.51,1h19.74c.95,0,1.23-.47.95-1.51Zm-25.12,56.1c1.41-4,2.83-8.4,4.15-13.22,1.51-4.72,2.93-9.44,4.35-14a116.44,116.44,0,0,0,3.21-12.18H92c.66,2.27,1.32,4.72,2.07,7.37s1.61,5.47,2.55,8.4,1.8,5.76,2.74,8.69,1.7,5.57,2.55,8.12,1.61,4.82,2.17,6.8Z"/><path class="cls-1" d="M169.59,83.39H150.9c-.85,0-1.23.38-1.23,1.32v72.72c0,.95.47,1.51,1.41,1.51h18.51c.85,0,1.23-.47,1.23-1.51V84.71C170.82,83.86,170.44,83.39,169.59,83.39Z"/><path class="cls-1" d="M160.24,75.46a11.09,11.09,0,0,0,8.6-3.31,11.91,11.91,0,0,0,3.3-8.69,11.89,11.89,0,0,0-3.11-8.4,11.33,11.33,0,0,0-8.6-3.31,12.11,12.11,0,0,0-8.4,3.31,11.07,11.07,0,0,0-3.4,8.4,12.26,12.26,0,0,0,3.21,8.69A11.72,11.72,0,0,0,160.24,75.46Z"/><rect class="cls-2" width="226.47" height="226.47"/></g></g></g></g></svg>