<svg xmlns="http://www.w3.org/2000/svg" viewBox="0 0 226.47 226.47"><defs><style>.cls-1{fill:#fff;}.cls-2{fill:none;}</style></defs><g id="Layer_2" data-name="Layer 2"><g id="Programs"><g id="White_Reverse" data-name="White Reverse"><g id="Incopy"><path class="cls-1" d="M89.8,59.31H71.39c-.85,0-1.32.38-1.32,1.23v96.89c0,1,.37,1.51,1.22,1.51H89.71c.85,0,1.32-.47,1.32-1.51V60.25A1.06,1.06,0,0,0,89.8,59.31Z"/><path class="cls-1" d="M162.24,139.87a31.79,31.79,0,0,1-5.2.94,62.07,62.07,0,0,1-7.27.38,31.18,31.18,0,0,1-10.58-1.89,18.53,18.53,0,0,1-8.68-6.42q-3.4-4.55-3.4-12.47A21.54,21.54,0,0,1,130,108.89a18.54,18.54,0,0,1,7.94-6.8,26.94,26.94,0,0,1,11.24-2.27,51.51,51.51,0,0,1,7.55.57,32.62,32.62,0,0,1,5.19,1.32c.85.19,1.23-.09,1.23-1L163.37,85a1.73,1.73,0,0,0-.75-1.7,50.93,50.93,0,0,0-5.2-1.14,47,47,0,0,0-9-.56,47.67,47.67,0,0,0-22.57,5.19,37.82,37.82,0,0,0-15,14.07,40,40,0,0,0-5.29,20.5,42.75,42.75,0,0,0,2.84,15.39,38.6,38.6,0,0,0,8,12.46,36.14,36.14,0,0,0,12.66,8.22,44.93,44.93,0,0,0,16.9,2.93c2.84,0,5.77-.19,8.79-.47a28.9,28.9,0,0,0,8-1.8,1.39,1.39,0,0,0,.76-1.32V141.09C163.56,140.34,163.18,140.05,162.24,139.87Z"/><rect class="cls-2" width="226.47" height="226.47"/></g></g></g></g></svg>