<svg xmlns="http://www.w3.org/2000/svg" viewBox="0 0 226.47 226.47"><defs><style>.cls-1{fill:#fff;}.cls-2{fill:none;}</style></defs><g id="Layer_2" data-name="Layer 2"><g id="Programs"><g id="White_Reverse" data-name="White Reverse"><g id="Indesign"><path class="cls-1" d="M80.94,59.31H62.52c-.85,0-1.32.38-1.32,1.23v96.89c0,1,.38,1.51,1.22,1.51H80.94c.85,0,1.32-.47,1.32-1.51V60.54a.35.35,0,0,0-.1-.29A1.05,1.05,0,0,0,80.94,59.31Z"/><path class="cls-1" d="M167.16,147.61c-.1-2.08-.19-4-.19-5.67V51.85a.84.84,0,0,0-.94-.66H146.85c-.66,0-.94.37-.94,1V82.07c-1.13-.1-2.08-.1-2.93-.19a17.66,17.66,0,0,0-2-.09c-9.35,0-17.28,1.79-23.9,5.47a39.23,39.23,0,0,0-15,14.64,38.67,38.67,0,0,0-5.19,19.93c0,8.59,1.69,15.77,5.19,21.53a32.93,32.93,0,0,0,14.26,12.84,46.85,46.85,0,0,0,20.3,4.25,82.54,82.54,0,0,0,14.55-1.32,71.66,71.66,0,0,0,15.39-4.53,1.55,1.55,0,0,0,.95-1.51C167.44,151.48,167.35,149.59,167.16,147.61Zm-21.25-6a8.24,8.24,0,0,1-3.4.47c-1.23.09-2.55.19-4,.19A24.75,24.75,0,0,1,130.7,141a16.44,16.44,0,0,1-6.42-3.78,18.5,18.5,0,0,1-4.25-6.7,26.31,26.31,0,0,1-1.6-9.73c0-4.91,1-9,3.11-12a21.15,21.15,0,0,1,8-7,23.3,23.3,0,0,1,10.67-2.46c1,0,2.08.1,3.12.19a22.81,22.81,0,0,1,2.55.47Z"/><rect class="cls-2" width="226.47" height="226.47"/></g></g></g></g></svg>