<svg xmlns="http://www.w3.org/2000/svg" viewBox="0 0 226.47 226.47"><defs><style>.cls-1{fill:#fff;}.cls-2{fill:none;}</style></defs><g id="Layer_2" data-name="Layer 2"><g id="Programs"><g id="White_Reverse" data-name="White Reverse"><g id="Lightroom_Classic" data-name="Lightroom Classic"><path class="cls-1" d="M82.25,139.82H43V60.49c0-.66-.28-1-.94-1H25.3c-.85,0-1.23.38-1.23,1.32v96.52c0,1.13.38,1.7,1.33,1.7H79.32a1.59,1.59,0,0,0,.85-.28,1.66,1.66,0,0,0,.57-1.14l2.45-16.43C83.38,140.29,83.1,139.82,82.25,139.82Z"/><path class="cls-1" d="M132.39,81.93a23.73,23.73,0,0,0-12.65,3.4,32.44,32.44,0,0,0-9.07,8.12c0-1.23,0-2.36-.09-3.4a29.36,29.36,0,0,0-.38-2.93,8.28,8.28,0,0,0-.66-2.17c-.38-1-.94-1.51-1.79-1.51H92.83a1.06,1.06,0,0,0-.76.09,1.41,1.41,0,0,0-.19.85q.42,3.12.57,6.24c.09,2.45.19,4.91.19,7.36s.09,4.82.09,7.08v52.32c0,1,.38,1.51,1.32,1.51h16.44c.75,0,1.13-.37,1.13-1.32V109.41a16.55,16.55,0,0,1,4.63-3.5,30.43,30.43,0,0,1,16.05-3.21c.85,0,1.32-.28,1.32-1V83.25C133.62,82.4,133.25,81.93,132.39,81.93Z"/><path class="cls-1" d="M200.86,140.1a1.13,1.13,0,0,0-1.51.1,30.69,30.69,0,0,1-6.61,1.6,80.69,80.69,0,0,1-8.21.38,27.79,27.79,0,0,1-7.37-1,28.34,28.34,0,0,1-7.18-3,20.78,20.78,0,0,1-5.95-5.48,28.6,28.6,0,0,1-4.15-8.12,36.11,36.11,0,0,1-1.51-11,34.66,34.66,0,0,1,3.11-15.11,23.79,23.79,0,0,1,8.88-9.92,26.28,26.28,0,0,1,13.79-3.59,46.73,46.73,0,0,1,8.88.76,22.17,22.17,0,0,1,6.8,2.27,1.38,1.38,0,0,0,1.22,0,1.63,1.63,0,0,0,.57-1.42V71.73a2.32,2.32,0,0,0-1-2.27,23.73,23.73,0,0,0-6.33-1.6,81.85,81.85,0,0,0-9.63-.57c-9.25,0-17.38,2-24.08,5.85a40.73,40.73,0,0,0-15.68,16.53c-3.68,7-5.48,15.3-5.48,24.56a62.64,62.64,0,0,0,2.08,16.62,43.67,43.67,0,0,0,6,12.93,37.7,37.7,0,0,0,9.25,9.35,36.85,36.85,0,0,0,12,5.67,52.18,52.18,0,0,0,13.79,1.89,66.73,66.73,0,0,0,9.73-.66,30.83,30.83,0,0,0,7.65-1.89,2.55,2.55,0,0,0,1.42-2.55V141.52A1.67,1.67,0,0,0,200.86,140.1Z"/><rect class="cls-2" width="226.47" height="226.47"/></g></g></g></g></svg>