<svg xmlns="http://www.w3.org/2000/svg" viewBox="0 0 226.47 226.47"><defs><style>.cls-1{fill:#fff;}.cls-2{fill:none;}</style></defs><g id="Layer_2" data-name="Layer 2"><g id="Programs"><g id="White_Reverse" data-name="White Reverse"><g id="Photoshop"><path class="cls-1" d="M113.23,69.65a33.71,33.71,0,0,0-12.65-7.74C95.29,59.92,88.87,59,81.12,59c-2.83,0-5.66,0-8.59.09s-5.67.1-8.22.19-4.91.1-7.17.19-3.69.09-5.29.09c-.66,0-1,.38-1,1v97.18c0,.85.38,1.23,1.14,1.23H70.36a1.18,1.18,0,0,0,1-1.32V127.35c1.79,0,3.11,0,4.06.1s2.45.09,4.72.09c7.74,0,14.83-.85,21.25-3.21a32.31,32.31,0,0,0,15.2-11.52q5.67-7.94,5.67-20.12a36.24,36.24,0,0,0-2.17-12.27A29.88,29.88,0,0,0,113.23,69.65ZM98.78,103A16.2,16.2,0,0,1,91,108a35.07,35.07,0,0,1-10.86,1.7h-5c-1.13,0-2.36-.09-3.68-.19V77.77a21.61,21.61,0,0,1,3.87-.09c1.8-.1,4-.1,6.42-.1a27.75,27.75,0,0,1,11.15,1.89,13.74,13.74,0,0,1,6.61,5.38,15.51,15.51,0,0,1,2.17,8.41C101.71,97.41,100.77,100.63,98.78,103Z"/><path class="cls-1" d="M185.1,127.26a21.89,21.89,0,0,0-7.46-7.84,68.44,68.44,0,0,0-14.54-6.89c-2.27-1-4.54-2-6.71-3.12a10.59,10.59,0,0,1-3.21-2.55,4.2,4.2,0,0,1-.94-2.46,5,5,0,0,1,.75-2.55,4.9,4.9,0,0,1,2.93-1.89,19.23,19.23,0,0,1,5.67-.66,50.11,50.11,0,0,1,10.57,1.23,33.42,33.42,0,0,1,9.07,3.21,2.5,2.5,0,0,0,1.7,0,1.16,1.16,0,0,0,.47-.94V87.4a4.53,4.53,0,0,0-.19-1.13,1.66,1.66,0,0,0-.94-.85,33.3,33.3,0,0,0-8.12-2.17,81,81,0,0,0-11.71-.85c-6.71,0-12.28,1-16.72,3.3a23.41,23.41,0,0,0-9.92,8.69,22.31,22.31,0,0,0-3.21,11.43,20.19,20.19,0,0,0,2.18,9.63,24.51,24.51,0,0,0,7.17,8,58.13,58.13,0,0,0,13.41,6.8c4.63,1.79,7.75,3.21,9.26,4.44s2.26,2.45,2.26,3.78a4.36,4.36,0,0,1-2.55,4c-1.7.85-4.24,1.32-7.83,1.32a44.2,44.2,0,0,1-11.15-1.41,40.79,40.79,0,0,1-11.71-4.63.71.71,0,0,0-.85-.09,1,1,0,0,0-.38.85v16.43a1.87,1.87,0,0,0,1,1.79,37.78,37.78,0,0,0,9.64,3A65,65,0,0,0,155.92,161c6.8,0,12.47-1,17.09-3a23.69,23.69,0,0,0,10.58-8.4A21.94,21.94,0,0,0,187.27,137,20.32,20.32,0,0,0,185.1,127.26Z"/><rect class="cls-2" width="226.47" height="226.47"/></g></g></g></g></svg>