<svg xmlns="http://www.w3.org/2000/svg" viewBox="0 0 226.47 226.47"><defs><style>.cls-1{fill:#fff;}.cls-2{fill:none;}</style></defs><g id="Layer_2" data-name="Layer 2"><g id="Programs"><g id="White_Reverse" data-name="White Reverse"><g id="Photoshop_Classic" data-name="Photoshop Classic"><path class="cls-1" d="M79.28,70.12a30.64,30.64,0,0,0-11.42-7.74,47.25,47.25,0,0,0-17.48-2.93c-2.55,0-5.1,0-7.74.09s-5.1.1-7.37.19-4.53.1-6.51.19-3.59-.19-5.1-.19c-.57,0-.85.38-.85,1v96.71c0,.85.28,1.41.94,1.41H40.28c.85,0,1.23-.47,1.23-1.32V128a36.69,36.69,0,0,1,3.68.1c.85.09,2.27.09,4.25.09a49.51,49.51,0,0,0,19.17-3.59A29.33,29.33,0,0,0,82.3,113.19c3.4-5.29,5.1-12,5.1-20a41.85,41.85,0,0,0-1.88-12.28A31.68,31.68,0,0,0,79.28,70.12ZM66.16,103.27a14.87,14.87,0,0,1-7,5,28.88,28.88,0,0,1-9.82,1.51H44.81c-1,0-2.08-.1-3.3-.19V78.24c1.13-.09,2.36-.19,3.49-.19C46.7,78,48.59,78,50.86,78a24.61,24.61,0,0,1,10,1.89,13.68,13.68,0,0,1,5.95,5.38,16.37,16.37,0,0,1,2,8.41C68.8,97.7,67.86,101,66.16,103.27Z"/><path class="cls-1" d="M131.51,119.32a57.54,57.54,0,0,0-13-6.89c-2.07-.94-4.06-2-6-3.12a9.11,9.11,0,0,1-2.83-2.55,5.28,5.28,0,0,1-.85-2.45,4.67,4.67,0,0,1,.66-2.55,4.73,4.73,0,0,1,2.64-1.89,15.7,15.7,0,0,1,5.1-.66,36.2,36.2,0,0,1,9.54,1.23,25.88,25.88,0,0,1,7.84,3.21.85.85,0,0,0,.94,0,.89.89,0,0,0,.38-1V87.31a4.75,4.75,0,0,0-.09-1.13,1.54,1.54,0,0,0-.85-.85,19.61,19.61,0,0,0-6.9-2.18,66.4,66.4,0,0,0-10.57-.85c-6,0-11,1.14-15,3.31a21.86,21.86,0,0,0-8.88,8.69,23,23,0,0,0-2.83,11.43,24.13,24.13,0,0,0,2,9.63,22,22,0,0,0,6.42,7.93,46.38,46.38,0,0,0,12.09,6.8c4.16,1.7,7,3.21,8.31,4.44a5.11,5.11,0,0,1,2.08,3.78,4.43,4.43,0,0,1-2.26,4c-1.52.95-3.88,1.33-7.09,1.33a45.26,45.26,0,0,1-10-1.42A33.43,33.43,0,0,1,92,137.65a.86.86,0,0,0-.94.09.91.91,0,0,0-.38.85V155a1.74,1.74,0,0,0,1.13,1.61,33.18,33.18,0,0,0,8.41,2.93,52.49,52.49,0,0,0,11.52,1.22,35.49,35.49,0,0,0,15.39-3,21.61,21.61,0,0,0,9.54-8.4A23.43,23.43,0,0,0,140,136.8a23,23,0,0,0-2-9.73A19.84,19.84,0,0,0,131.51,119.32Z"/><path class="cls-1" d="M203.28,140.1a1.13,1.13,0,0,0-1.51.1,30.83,30.83,0,0,1-6.61,1.6,80.75,80.75,0,0,1-8.22.38,27.77,27.77,0,0,1-7.36-1,28.34,28.34,0,0,1-7.18-3,20.78,20.78,0,0,1-6-5.48,28.89,28.89,0,0,1-4.16-8.12,36.73,36.73,0,0,1-1.51-11,34.81,34.81,0,0,1,3.12-15.11,23.72,23.72,0,0,1,8.88-9.92,26.26,26.26,0,0,1,13.79-3.59,46.62,46.62,0,0,1,8.87.76,22.08,22.08,0,0,1,6.8,2.27,1.4,1.4,0,0,0,1.23,0,1.63,1.63,0,0,0,.57-1.42V71.73a2.74,2.74,0,0,0-1-2.27,23.92,23.92,0,0,0-6.33-1.6,81.85,81.85,0,0,0-9.63-.57c-9.26,0-17.38,2-24.08,5.85a40.73,40.73,0,0,0-15.68,16.53c-3.68,7-5.48,15.3-5.48,24.56a62.23,62.23,0,0,0,2.08,16.62,43.65,43.65,0,0,0,6,12.93,37.74,37.74,0,0,0,9.26,9.35,36.85,36.85,0,0,0,12,5.67A52.13,52.13,0,0,0,185,160.69a66.73,66.73,0,0,0,9.73-.66,30.83,30.83,0,0,0,7.65-1.89,2.53,2.53,0,0,0,1.41-2.55V141.52A1.63,1.63,0,0,0,203.28,140.1Z"/><rect class="cls-2" width="226.47" height="226.47"/></g></g></g></g></svg>