<svg xmlns="http://www.w3.org/2000/svg" viewBox="0 0 226.47 226.47"><defs><style>.cls-1{fill:#fff;}.cls-2{fill:none;}</style></defs><g id="Layer_2" data-name="Layer 2"><g id="Programs"><g id="White_Reverse" data-name="White Reverse"><g id="Premiere_Rush" data-name="Premiere Rush"><path class="cls-1" d="M114,150.44c-1.79-2.83-3.78-5.95-6-9.25s-4.34-6.71-6.51-10-4.25-6.24-6-9-3.21-4.73-4.25-6a31.65,31.65,0,0,0,9.92-6.14,28.6,28.6,0,0,0,6.7-9.06,26.37,26.37,0,0,0,2.46-11.34c0-6.61-1.51-12.18-4.63-16.62A28.91,28.91,0,0,0,92.33,62.61C86.56,60.25,79.39,59,70.89,59H62.67c-2.55,0-4.91,0-7.27.09l-7.27.19c-2.55,0-5.57.09-9.16.19-.66,0-.95.38-.95,1.32v96.8c0,.85.38,1.32,1.23,1.32H57.38a1.14,1.14,0,0,0,1.23-1.23V122.3H69.94a3.38,3.38,0,0,1,1.89.57,8.32,8.32,0,0,1,1.7,2c1.42,2.55,3,5.38,4.91,8.5s3.78,6.33,5.67,9.54,3.68,6.14,5.29,8.78,3,4.82,4.15,6.42a2.54,2.54,0,0,0,.76.66,5.31,5.31,0,0,0,1.32.19h22.1a.53.53,0,0,0,.66-.56,1.45,1.45,0,0,0-.38-1.23C117.07,155.54,115.75,153.28,114,150.44Zm-27-52.22a12.37,12.37,0,0,1-6.42,4.53,30.29,30.29,0,0,1-10,1.42H58.61V77.72c1.13-.09,2.83-.09,4.91-.18s4.35-.1,6.8-.1c5.67,0,10.2,1,13.7,3.12s5.19,5.47,5.19,10.1A11.92,11.92,0,0,1,86.94,98.22Z"/><path class="cls-1" d="M190.83,154c-.1-1.51-.19-3.21-.29-5.19s-.09-4.25-.09-6.8V84.15a.89.89,0,0,0-1-.76h-18.7c-.85,0-1.32.28-1.32,1v53.45A20.25,20.25,0,0,1,164.1,141a18.92,18.92,0,0,1-6.42,1.13c-4.25,0-7.37-1.23-9.16-3.59s-2.74-5.66-2.74-9.82V84.34a1.07,1.07,0,0,0-1.23-1h-19a1.08,1.08,0,0,0-.95,1.23v46.46a43.19,43.19,0,0,0,1.89,13.41,23.59,23.59,0,0,0,5.29,9.16,19.73,19.73,0,0,0,8,5.2,31.76,31.76,0,0,0,10.29,1.6A39.7,39.7,0,0,0,160.61,159a27,27,0,0,0,10.67-5.86,9.86,9.86,0,0,0,.19,2.36c.18.85.37,1.61.56,2.36a1.78,1.78,0,0,0,1.8,1h16.34c.75,0,1.13-.38,1-1.23S190.92,155.54,190.83,154Z"/><rect class="cls-2" width="226.47" height="226.47"/></g></g></g></g></svg>