<svg xmlns="http://www.w3.org/2000/svg" viewBox="0 0 226.47 226.47"><defs><style>.cls-1{fill:#fff;}.cls-2{fill:none;}</style></defs><g id="Layer_2" data-name="Layer 2"><g id="Programs"><g id="White_Reverse" data-name="White Reverse"><g id="Spark"><path class="cls-1" d="M100.12,109q-5.62-4.62-15.65-8.73L78.8,98.12a95.75,95.75,0,0,1-8.87-4.49,15.24,15.24,0,0,1-4.56-3.78A7.3,7.3,0,0,1,64,85.52,7.56,7.56,0,0,1,65,82a7.22,7.22,0,0,1,2.83-2.89,17.84,17.84,0,0,1,4.94-1.89,31.07,31.07,0,0,1,7.45-.77,57.54,57.54,0,0,1,12.75,1.35,42.31,42.31,0,0,1,10.64,3.78c.36.31.69.33,1,.08a1,1,0,0,0,.37-.68V63.7a2.1,2.1,0,0,0-1-2,32.44,32.44,0,0,0-10.12-2.84,95.29,95.29,0,0,0-13.61-.94Q68.1,58,60,61.81a27.31,27.31,0,0,0-16.27,25.5,30.78,30.78,0,0,0,2,11.11A24.32,24.32,0,0,0,53,108.07,56.42,56.42,0,0,0,67.5,116.5l7.55,3.2a50.6,50.6,0,0,1,8.36,4.1,13.34,13.34,0,0,1,4.26,4,9,9,0,0,1,1.22,4.64,7.88,7.88,0,0,1-3.78,6.61q-3.72,2.67-12.39,2.66a53.11,53.11,0,0,1-27.52-7.9,1,1,0,0,0-1-.08,1,1,0,0,0-.38.84v18.1a2.62,2.62,0,0,0,1.22,2.59A50.07,50.07,0,0,0,56.68,159a75.39,75.39,0,0,0,15.43,1.44,50.81,50.81,0,0,0,20.11-3.66,30.7,30.7,0,0,0,13.31-10.39,26.53,26.53,0,0,0,4.79-15.73A29.61,29.61,0,0,0,108,119,26.74,26.74,0,0,0,100.12,109Z"/><path class="cls-1" d="M188.06,105A35.72,35.72,0,0,0,181,93.16a33,33,0,0,0-11.86-8.28,43.88,43.88,0,0,0-17.18-3,69.72,69.72,0,0,0-12.4,1c-3.91.72-7.5,1.49-10.8,2.44S122.53,87.12,120,88a.81.81,0,0,0-.61.94,29.69,29.69,0,0,1,.23,3c.05,1.27.08,2.57.16,3.88s.07,2.33.07,3v89.25c0,.81.34,1.21,1,1.21a17.29,17.29,0,0,1,2.58-.3c1.42-.1,3.09-.25,5-.45s3.89-.42,6-.62,3.42-.35,4.94-.45h.12a1.23,1.23,0,0,0,1.09-1.36V160.3c.62,0,1.63.08,2.14.08a9.71,9.71,0,0,0,1.21.07A57.35,57.35,0,0,0,161,157.9a46.25,46.25,0,0,0,15-7.84,37.57,37.57,0,0,0,10.54-13,40.32,40.32,0,0,0,3.88-18.24A40.27,40.27,0,0,0,188.06,105ZM165.2,133.41a20,20,0,0,1-8.73,7.21,27.39,27.39,0,0,1-10.78,2.24c-.61,0-1.41-.08-2.36-.08a21,21,0,0,1-2.83-.72V100.5c1.52-.4,3.48-.2,4.9-.4a32.36,32.36,0,0,1,4.72-.31h0q8.81,0,13.68,5.35t4.88,15.06Q168.71,128.37,165.2,133.41Z"/><rect class="cls-2" width="226.47" height="226.47"/></g></g></g></g></svg>