<svg xmlns="http://www.w3.org/2000/svg" viewBox="0 0 226.6 39.42"><defs><style>.cls-1,.cls-2,.cls-3{fill-rule:evenodd;}.cls-2{fill:#cc2229;}.cls-3{fill:#e0922f;}</style></defs><g id="Layer_2" data-name="Layer 2"><g id="Clients"><g id="Logos_Color" data-name="Logos Color"><g id="Loblaws"><path class="cls-1" d="M79.84,38.62A17.28,17.28,0,0,0,84,39.2a16.46,16.46,0,0,0,4.28-.62,13.3,13.3,0,0,0,8.76-8.4,18.06,18.06,0,0,0,1.17-6,18.74,18.74,0,0,0-1.12-5.94,13.8,13.8,0,0,0-8.73-8.36,18.64,18.64,0,0,0-4.3-.57,15.87,15.87,0,0,0-4.28.62,13.71,13.71,0,0,0-8.75,8.42A18.78,18.78,0,0,0,70,24.43a21.24,21.24,0,0,0,1.11,6.26H58.85a5.09,5.09,0,0,1-4.92-5.19L53.89,0H46.36V25.5a12.78,12.78,0,0,0,12.53,13H72.73v-5A13.46,13.46,0,0,0,79.84,38.62Zm-2.41-11.2c-.07-.88-.26-2-.26-3a22.73,22.73,0,0,1,.3-3.3,10,10,0,0,1,.81-2.46,6.26,6.26,0,0,1,5.79-3.77,6.39,6.39,0,0,1,5.84,3.77,9.88,9.88,0,0,1,.79,2.49,19.09,19.09,0,0,1,.34,3,27.79,27.79,0,0,1-.38,3.19,8.24,8.24,0,0,1-.78,2.43A6.49,6.49,0,0,1,84,33.73a6.36,6.36,0,0,1-5.75-3.88,9.12,9.12,0,0,1-.85-2.43Zm47.92,5.15a11.71,11.71,0,0,1-10.59,6.85,11.92,11.92,0,0,1-7.67-3v2h-7V0h7.1V12.16a11.71,11.71,0,0,1,7.56-2.84,12.41,12.41,0,0,1,5.3,1.26,13.27,13.27,0,0,1,5.66,6.57,21.29,21.29,0,0,1,1.38,7.22,20.6,20.6,0,0,1-1.75,8.2Zm-18-12.26a6.79,6.79,0,0,1,.92-1.92,6.14,6.14,0,0,1,5.15-3,6,6,0,0,1,3.43,1.08,7.87,7.87,0,0,1,2.84,5,23.36,23.36,0,0,1,.22,2.84c0,.8-.15,1.77-.22,2.54a9.43,9.43,0,0,1-1.39,3.69,5.85,5.85,0,0,1-10.55-1.2,17.79,17.79,0,0,1-.88-5.22,18.17,18.17,0,0,1,.48-3.84Zm28.76,18.16H129V0h7.19V38.47Zm20.22-8.82c.11-1.15.29-2.65.29-3.84,0-.61-.11-1.3-.11-1.87a9.27,9.27,0,0,1-2.22.88l-4.44,1.08a11.61,11.61,0,0,0-2.25.8,5.46,5.46,0,0,0-2.08,1.58A2.84,2.84,0,0,0,145,30.1a3,3,0,0,0,.15.86,4.51,4.51,0,0,0,2.52,2.53A7.72,7.72,0,0,0,155,32.06a3.71,3.71,0,0,0,1.37-2.41Zm7,4.88a8.37,8.37,0,0,0,.93,3.92h-7c-.16-.84-.3-1.69-.41-2.53a12.42,12.42,0,0,1-16,.5A7.74,7.74,0,0,1,138,31.33c0-.18,0-.49,0-.68a8,8,0,0,1,3.42-6.6,13.46,13.46,0,0,1,4.85-2.16,45.78,45.78,0,0,1,5.78-1,20.13,20.13,0,0,1,2.24-.39A2.48,2.48,0,0,0,156.39,18a3,3,0,0,0-.2-1.12,3.39,3.39,0,0,0-1.76-1.68,6.6,6.6,0,0,0-3.14-.77,7.12,7.12,0,0,0-2.8.57,4.15,4.15,0,0,0-2.5,3.53h-6.22a13.72,13.72,0,0,1,1.08-4.23A7.13,7.13,0,0,1,143,11.7a9.49,9.49,0,0,1,2.56-1.38,18.88,18.88,0,0,1,5.86-1,19.14,19.14,0,0,1,6.85,1.3,8.89,8.89,0,0,1,4.07,3.69,13.55,13.55,0,0,1,1,4.89l0,15.33Zm7.78,3.94L162.79,10.2h7.08l5,18,4.5-18h6.5l5.14,18.16,4.51-18.16h7.17l-8.09,28.27H188L182.85,19.4l-5.11,19.07Zm45.45-23.22a3.82,3.82,0,0,1,2.54,3.3h6.46A8.55,8.55,0,0,0,221,11.06a15.7,15.7,0,0,0-12-.84c-4.25,1.3-6.33,3.95-6.33,8.14a7.63,7.63,0,0,0,2.42,5.55,13.73,13.73,0,0,0,6.34,2.69l5.74,1.15c2.32.42,3.69,2.94,1.68,4.83s-4.7,1.61-6.94.73a5.23,5.23,0,0,1-3.17-4.41h-6.48a10.68,10.68,0,0,0,1.37,5,10.35,10.35,0,0,0,4.25,3.92,17,17,0,0,0,12.2.76,8.56,8.56,0,0,0,6.53-8.61,7.57,7.57,0,0,0-3.8-7.06,16.25,16.25,0,0,0-4.64-1.59l-7-1.3a2.26,2.26,0,0,1-1.42-3.92C211.64,14.29,214.22,14.59,216.56,15.25Z"/><path class="cls-2" d="M18.65,0H0V19.24A19.28,19.28,0,0,0,19.23,38.48H38.45l0-18.69H26a7.4,7.4,0,0,1-7.37-7.37Z"/><path class="cls-3" d="M25.46,0H19.8V12.44A6.24,6.24,0,0,0,26,18.65H38.45V13l-7.87,0a5.13,5.13,0,0,1-5.12-5.1V0Zm6.22,0H26.61V7.9a4,4,0,0,0,3.95,3.94h7.89v-5H34.73a3.06,3.06,0,0,1-3-3l0-3.77Zm6.77,0h-5.6V3.78a1.89,1.89,0,0,0,1.85,1.89h3.74V0Z"/></g></g></g></g></svg>