<?xml version="1.0" encoding="utf-8"?>
<!-- Generator: Adobe Illustrator 19.2.1, SVG Export Plug-In . SVG Version: 6.00 Build 0)  -->
<svg version="1.1" id="layer" xmlns="http://www.w3.org/2000/svg" xmlns:xlink="http://www.w3.org/1999/xlink" x="0px" y="0px"
	 viewBox="0 0 652 652" style="enable-background:new 0 0 652 652;" xml:space="preserve">
<style type="text/css">
	.st0{fill:#BF1327;}
	.st1{fill:#1D7095;}
	.st2{fill:#FFFFFF;}
	.st3{fill:#F9DB13;}
	.st4{fill:#006F98;}
</style>
<g>
	<path class="st0" d="M151.2,308.4l-12.5,33c10.2-0.1,20.6,3.6,27.8,11L151.2,308.4z M128.7,370.2c-1.1,3.2-2.2,6.5-2.2,9.8
		c0,4.4,3.6,7.2,7.6,7.4v1.2H106v-1.2c3.3-0.7,5.1-1.5,7.2-4.4c2.5-3.6,4.7-8.8,6.2-12.8l22.2-58.5c1-2.6,2.1-5.2,2.1-8
		c0-2.5-1.9-4-4.3-4.4V298h30.6v1.2c-2.5,0.7-4,2.2-4,5c0,1.7,0.7,3.9,1.2,5.4l23.5,67.7c2.1,5,2.9,8.7,8.4,10v1.2h-31.2v-1.2
		c5-1.1,6.7-4.8,6.7-9.6c0-12.5-15.7-29-37.9-29.5L128.7,370.2z"/>
	<path class="st0" d="M227,364.5c0,12.1-0.3,17.8,14.2,17.8c21.7,0,33.6-13.5,33.6-35c0-22.8-13.5-42.9-37.4-42.9
		c-11,0-10.3,5.5-10.3,14.4V364.5z M235.6,298c14.4,0,27.1,2.2,38.5,11.8c10.6,8.9,17.1,22.6,17.1,36.5c0,12.3-5,24.9-14.6,32.9
		c-10.9,9.1-22.4,9.4-35.9,9.4h-37.8v-1.2c8.8-1.4,8.9-8.4,8.9-15.8v-55.5c0-7.6-0.1-15.6-8.9-16.8V298H235.6z"/>
	<path class="st0" d="M355,383.3c19.3,0,29.3-16.8,29.3-34.6c0-24.5-16.4-45.3-35.8-45.3c-19.7,0-28.8,17.5-28.8,35.2
		C319.7,359.2,332,383.3,355,383.3 M317.9,377.7c-9.2-8.7-14.7-21.6-14.7-34.1c0-27.5,21.3-47.4,48.4-47.4c27.9,0,49.1,20,49.1,48.3
		c0,26.8-23.1,45.8-49,45.8C339.3,390.4,327.2,386.4,317.9,377.7"/>
	<path class="st0" d="M474,316.1c0-7.8-0.1-15.8-9.2-16.8V298h27.1v1.2c-8.8,1.2-9,8.4-9,15.8v55.5c0,7.7,0.1,15.6,9,16.8v1.2h-27.1
		v-1.2c9-1,9.2-8.1,9.2-15.8v-5.6c0-3.3,0.1-9.2-0.6-12.4c-1-3.7-4.3-5.9-7-8.3L423,309.1v61.5c0,7.8,0.1,16,8.9,16.8v1.2h-26.8
		v-1.2c8.8-1.2,8.9-8.4,8.9-15.8v-55.5c0-7.6-0.1-15.6-8.9-16.8V298h36.2v1.2c-4.5,0.4-3.4,3,1.4,7l31.4,26.2V316.1z"/>
	<path class="st0" d="M526.2,370.6c0,7.6,0.1,15.6,9,16.8v1.2h-33v-1.2c8.8-1.1,9-8.3,9-15.8v-55.5c0-7.6-0.1-15.6-9-16.8V298h33
		v1.2c-8.8,1.4-9,8.4-9,16V370.6z"/>
	<path class="st0" d="M611.5,324.2l-1.1,0.3c-4.3-12.5-17.2-21.1-30.4-21.1c-7.7,0-17.3,2.6-17.3,11.4c0,6.6,9.2,8.7,14.2,10.2
		l19.3,5.8c17.9,5.4,25.1,15.7,25.1,27c0,21.7-14.7,32.6-37.3,32.6c-11.3,0-20.1-4.4-26.6-4.4c-2.1,0-3.4,1.1-4.7,2.5l-8-34.4
		l1.2-0.4c5,16.1,17.8,28.8,35.4,28.8c17.8,0,26.1-7,26.1-19c0-12-10.9-15.1-20.2-18l-18.3-5.6c-10.7-3.3-20-8.3-20-20.9
		c0-16.1,15.7-23,28.2-23c10.6,0,15.8,3.4,24,3.4c2.3,0,3.6-0.8,5-2.5L611.5,324.2z"/>
	<path class="st1" d="M90.5,295.8c1.6-1.4,2.1-3.1,1.5-3.2c-0.6-0.1-1.6-1-3.1,0.5c-1.5,1.5-3.7,4.3-5.4,6.3c-1.7,2-3.2,2.8-4,6.7
		c-0.7,3.8-2.6,23.6-3.2,29.6c-0.6,6.1-3.8,32.6-5.1,43.1c-1.2,10.5-4.5,44.6-5.4,46.4c-0.8,1.6-2.4,0.5-2.8,0.1c0.1,0,0.4,0,1-0.4
		c1.1-0.6,1.2-2.4,1.8-7.9c0.6-5.6,1.2-18.6,1.6-26.4c0.4-7.8,4.6-42.2,4.7-48.9c0.1-5.9,2.4-31.1,2.9-36.5c0.1-1.2,0.6-2.4,2.9-4.9
		c2.5-2.6,2-3.8,2-3.8h-5.1c0,0-0.5,1.6-1.5,3.8c-1,2.2-2.1,4.7-2.6,10.9c-0.5,6.2-3,34-3.2,38.4c-0.3,4.4-3,44.5-3.3,51.9
		c-0.4,7.4-0.4,9.9-0.7,9c-0.4-0.9,0-10.6-0.1-13.3c-0.1-1.3-0.1-9.3-0.1-17.7c0-8.6,0.1-17.6,0.3-20.4c0.4-5.6,1.9-34.4,2.1-39.1
		c0.2-4.7,1.5-22.6,1.5-22.6h-6.1c0,0,1,80,1.1,81.9c0,0.1,0,0.2,0,0.3c0,1.6-0.9,1.4-1,0.8c-0.1-0.6-1.4-17.2-1.7-23.7
		c0-0.4,0-0.8,0-1.2c-0.1-5.3-1.1-53.1-1.1-53.1s-0.6-0.5-2-1.7c-1.4-1.2-1.4-3.8-1.4-3.8c-2.1-0.1-5.2-1.1-5.2-1.1s-0.5,0-0.1,1.9
		c0.4,1.9,2.8,3.1,3.7,4.1c0.9,1,0.6,1.7,0.9,6.5c0.2,3.7,2.4,34.8,3.1,48.5c0.2,3.9,0.3,6.4,0.1,6.4c-0.6,0-0.4,0.6-0.4-1.1
		s-2.2-20.3-2.9-27.4c-0.6-7.2-3-27.4-3.5-29.4c-0.5-2-2.3-2.8-4.2-5.2c-1.9-2.3-1.7-5.3-1.7-5.3s-0.9-0.7-3-1.5c-2.1-0.8-4-2-4-2
		s-0.5,2.4,0.4,3.5c0.9,1.1,1.4,0.5,4.8,3.7c3.5,3.2,5.3,7,6.2,12.7c0.9,5.7,5.6,51.6,5.6,51.6c1.4,14.1,3.3,22.4,4.2,45.3
		c0.9,23,5.2,21,5.2,21c3.7-0.1,4.5-10.5,5.1-17.7c0.6-7.2,4.7-36.4,5.1-44.8c0.4-8.4,4.4-38.3,4.8-41.2c0.4-3,1.1-16.3,2.6-20
		C83.3,301.6,88.9,297.2,90.5,295.8 M64.4,294c34.4,0,37.8-19.1,37.8-19.1s-11.5,9.8-36.5,9.8c-23.7,0-38-10.4-38-10.4
		S31,294,64.4,294 M107.3,268.4c0,0-0.7,5.4-3.1,9.8c-2.4,4.4-5.4,8.5-8.3,11.3c0,0,0,4.3-1.5,6.7c-1.5,2.4-8.5,7-9.4,8.9
		c-0.9,1.8-2.2,12.6-2.9,20c-0.8,7.4-4.3,35.6-5.2,45c-0.9,9.4-3.9,30.9-4.6,40.5c0,0-1.1,11.3-1.9,15.4c-0.7,4.1-3.1,5.7-6.1,5.9
		c-3,0.2-5-1.5-6.1-5.9c-1.1-4.5-2-19.6-3-33.5c-0.9-13.9-3.3-28.5-4.3-40.2c0,0-3.5-38.3-4.6-44.1c-1.1-5.8-5.7-7.8-7.8-9.6
		c-2-1.8-3-2.2-3.5-4.6c-0.6-2.4-0.4-4.8-0.4-4.8s-5.9-4.3-9.1-12.4c-3.1-8.2-2-8.5-2-8.5s8.3,14.3,43.9,14.3
		C98.3,281.6,107.3,268.4,107.3,268.4"/>
	<path class="st2" d="M102.1,274.9c0,0-3.3,19.1-37.8,19.1c-33.3,0-36.7-19.6-36.7-19.6s14.3,10.4,38,10.4
		C90.7,284.7,102.1,274.9,102.1,274.9"/>
	<path class="st2" d="M92,292.6c0.6,0.1,0.1,1.9-1.5,3.2c-1.6,1.4-7.2,5.8-8.6,9.5c-1.5,3.7-2.2,17-2.6,20c-0.4,3-4.5,32.9-4.8,41.2
		c-0.4,8.4-4.4,37.7-5.1,44.8c-0.6,7.2-1.4,17.5-5.1,17.7c0,0-4.3,2-5.2-21c-0.9-23-2.8-31.2-4.2-45.3c0,0-4.7-45.9-5.6-51.6
		c-0.9-5.7-2.7-9.5-6.2-12.7c-3.5-3.2-4-2.6-4.8-3.7c-0.9-1.1-0.4-3.5-0.4-3.5s1.8,1.2,3.9,2c2.1,0.7,3,1.5,3,1.5s-0.1,3,1.7,5.3
		c1.9,2.3,3.7,3.2,4.2,5.2c0.5,2,2.9,22.2,3.5,29.4c0.6,7.2,2.8,25.7,2.8,27.4s-0.2,1.1,0.4,1.1c0.1,0,0.1-2.5-0.1-6.4l2.2-0.1
		c0.3,6.4,1.6,23.1,1.7,23.7c0.1,0.6,1,0.7,1-0.8h1c0,8.4,0,16.4,0.1,17.7c0.1,2.7-0.2,12.5,0.1,13.3c0.4,0.9,0.4-1.6,0.7-9
		c0.4-7.4,3.1-47.4,3.3-51.9c0.2-4.5,2.7-32.2,3.2-38.4c0.5-6.2,1.6-8.6,2.6-10.9c1-2.2,1.5-3.8,1.5-3.8h5.1c0,0,0.5,1.2-2,3.8
		c-2.3,2.4-2.8,3.7-2.9,4.9c-0.5,5.4-2.8,30.6-2.9,36.5c-0.1,6.7-4.3,41.1-4.7,48.9c-0.4,7.8-1,20.9-1.6,26.4
		c-0.6,5.5-0.7,7.3-1.8,7.9c-0.6,0.3-0.9,0.4-1,0.4c0.4,0.4,2,1.5,2.8-0.1c1-1.9,4.2-35.9,5.4-46.4c1.2-10.5,4.5-37,5.1-43.1
		c0.6-6,2.5-25.8,3.2-29.6c0.7-3.8,2.2-4.7,4-6.7c1.7-2,4-4.8,5.4-6.3C90.4,291.6,91.3,292.5,92,292.6"/>
	<path class="st2" d="M61.1,297.3h6.1c0,0-1.2,17.9-1.5,22.6c-0.3,4.7-1.7,33.6-2.1,39.1c-0.2,2.8-0.3,11.8-0.3,20.4h-1
		c0-0.1,0-0.2,0-0.3C62.1,377.3,61.1,297.3,61.1,297.3"/>
	<path class="st2" d="M59.5,356.6l-2.1,0.1c-0.7-13.7-2.9-44.8-3.1-48.5c-0.3-4.8,0-5.6-0.9-6.5c-0.9-1-3.3-2.2-3.7-4.1
		c-0.4-1.9,0.1-1.9,0.1-1.9s3.1,1,5.2,1.1c0,0,0,2.6,1.4,3.8c1.4,1.2,2,1.7,2,1.7s1,47.8,1.1,53.1C59.5,355.8,59.5,356.2,59.5,356.6
		"/>
</g>
<g>
	<path class="st3" d="M103,258.6c-0.6-2.2-1.1-7.6-1.1-7.6s-0.6,0.9-2.2,3.9c-1.7,3-1.9,5-1.9,5s-0.6,1.5-0.4-3
		c0.2-4.5,0-5.9-2.4-8.9c-1.4-1.8-2.8-1.7-3.3-8.9c-0.6-7.2-2.6-9.1-2.6-9.1c-1.1,7.2-2.8,5.6-3.3,11.1c-0.6,5.6,0.2,8.3,0.2,8.3
		c0.3,4.2-1.8,5.9-2.6,6.6c-0.2-2.1-2.1-10.3-1.9-8.8c0.9,6.5-3.2-9.6-3.2-9.6l-0.7,3.5c-0.7,3.5-2.2,5.9-2.2,5.9s0.6-2.2,0.6-6.1
		s0.2-5.2-3.9-12.8c-4.1-7.6-3.9-14.1-3.9-14.1c-2.2,3.9-2.8,3.5-5.8,9.1c-3,5.6-2.8,8.2-2.8,8.2c-0.7-1.3-0.9-4.6-0.9-4.6
		s-4.8,4.4-6.1,12.2c-1.3,7.8-0.7,11.3-0.7,11.3c-3.2-7.4-1.1-8.2-3.3-15.4c-2.2-7.2-5.6-11.9-5.6-11.9c-2,7.6-0.6,6.9-1.1,16.1
		c-0.6,9.3-1.5,8.2-3.3,12c-1.9,3.9-1.5,6.1-1.5,6.1c-2.2-4.6-1.7-9.1-1.7-9.1s-0.8,0.4-1.9,5c-1.1,4.6-1.1,8-1.1,8s0.6,1.3-0.9-1.5
		c-1.5-2.8-2.6-7.8-2.6-7.8s-0.8,5.4-1.1,8.2c-0.4,2.8-0.7,7.2,3.3,11.1c1.6,1.5,3.7,3,5.6,1.3c1.8-1.6-0.2-2.4,1.3-7.2
		c0.9-3,6.1-9.4,6.1-9.4s0.4,2.4-0.7,6.9c-1.1,4.4-2.4,9.6,0.7,11.3c3.1,1.7,2.6,1.3,5-4.1c2.4-5.4,4.5-7.8,4.5-7.8
		s-0.9,1.5-1.5,7.2c-0.6,5.7,0,7.6,4.1,7.6c4.1,0,1.5-4.6,3.2-8.7c1.7-4.1,4.8-7.2,6.3-10.6c1.5-3.3-0.4-7.2-0.4-7.2
		c1.7,1.1,3.9,2.2,3.7,8.5c-0.2,6.3-3.9,10.4-4.3,13.2c-0.4,2.8,0.9,6.7,5,5.4c4.1-1.3,2.4-4.8,3.5-8.7c1.1-3.9,3.7-6.7,3.7-6.7
		c0.6,3.5,0.2,3.5-0.4,6.3c-0.6,2.8-0.4,7.6,3.3,6.9c3.7-0.7,1.3-4.6,2-8.5c0.7-3.9,3.2-7.4,3.2-7.4s1.1,2.6,1.1,7.2
		c0,4.6,0.9,5.7,3.5,5.7c2.6,0,2.4-0.2,3.2-6.5c0.7-6.3-1.1-8.3-1.1-8.3s0.7-0.2,2.8,2.8c2,3,2.8,8.7,2.8,8.7s0.7,0.7,3,0.2
		C105.5,267.5,103.6,260.8,103,258.6"/>
	<path class="st0" d="M100.3,269.1c-2.2,0.6-3-0.2-3-0.2s-0.7-5.7-2.8-8.7c-2-3-2.8-2.8-2.8-2.8s1.8,2,1.1,8.3
		c-0.8,6.3-0.6,6.5-3.2,6.5c-2.6,0-3.5-1.1-3.5-5.7c0-4.6-1.1-7.2-1.1-7.2s-2.4,3.5-3.2,7.4c-0.8,3.9,1.7,7.8-2,8.5
		c-3.7,0.7-3.9-4.1-3.3-6.8c0.6-2.8,0.9-2.8,0.4-6.3c0,0-2.6,2.8-3.7,6.7c-1.1,3.9,0.6,7.4-3.5,8.7c-4.1,1.3-5.4-2.6-5-5.4
		c0.4-2.8,4.1-6.9,4.3-13.2c0.2-6.3-2-7.4-3.7-8.5c0,0,1.9,3.9,0.4,7.2c-1.5,3.3-4.6,6.5-6.3,10.6c-1.7,4.1,0.9,8.7-3.1,8.7
		c-4.1,0-4.7-1.9-4.1-7.6c0.6-5.7,1.5-7.2,1.5-7.2s-2,2.4-4.5,7.8c-2.4,5.4-1.9,5.7-5,4.1c-3.2-1.7-1.9-6.9-0.7-11.3
		c1.1-4.5,0.7-6.9,0.7-6.9s-5.2,6.4-6.1,9.4c-1.5,4.8,0.5,5.7-1.3,7.2c-1.9,1.7-4,0.2-5.6-1.3c-4.1-3.9-3.7-8.3-3.3-11.1
		c0.4-2.8,1.1-8.2,1.1-8.2s1.1,5,2.6,7.8c1.5,2.8,0.9,1.5,0.9,1.5s0-3.3,1.1-8c1.1-4.6,1.9-5,1.9-5s-0.6,4.5,1.7,9.1
		c0,0-0.4-2.2,1.5-6.1c1.8-3.9,2.8-2.8,3.3-12.1c0.6-9.3-0.9-8.5,1.1-16.1c0,0,3.3,4.6,5.6,11.9c2.2,7.2,0.2,8,3.3,15.4
		c0,0-0.6-3.5,0.7-11.3c1.3-7.8,6.1-12.2,6.1-12.2s0.2,3.3,0.9,4.6c0,0-0.2-2.6,2.8-8.2c3-5.6,3.5-5.2,5.8-9.1c0,0-0.2,6.5,3.9,14.1
		c4.1,7.6,3.9,8.9,3.9,12.8c0,3.9-0.6,6.1-0.6,6.1s1.5-2.4,2.2-5.9l0.7-3.5c0,0,4.1,16.1,3.2,9.6c-0.2-1.5,1.7,6.8,1.9,8.8
		c0.8-0.7,2.8-2.4,2.6-6.6c0,0-0.7-2.8-0.2-8.3c0.6-5.6,2.2-3.9,3.3-11.1c0,0,2,1.9,2.6,9.1c0.6,7.2,1.9,7.1,3.3,8.9
		c2.4,3,2.6,4.4,2.4,8.9c-0.2,4.5,0.4,3,0.4,3s0.2-2,1.9-5c1.7-3,2.2-3.9,2.2-3.9s0.6,5.4,1.1,7.6
		C103.6,260.8,105.5,267.5,100.3,269.1 M108.8,256.2c-0.6-5-3.9-8.3-4.1-12.2c-0.2-3.9,2-7.4,2-7.4s-1.9-1.1-3.9,3.3
		c-2,4.4-2.4,5.4-2.4,5.4c0-0.2-4.2-6.9-5.6-8c-1.5-1.1-1.3-1.1-1.7-2.2c-0.4-1.1,0-10.9-0.6-17.4c-0.6-6.5-6.7-10.2-6.7-10.2
		s2.8,2.4,1.1,7.2c-1.7,4.8-4.8,8.7-4.8,8.7c-2.4,3.9-2.6,6.9-2.6,6.9s-4.1-1.7-5.8-9.8c-1.7-8.2,0.9-11.5-0.2-18.9
		c-1.7-8.5-6.3-11.7-6.3-11.7c1.9,3.1,1.1,3.9,1.1,6.5c0,2.6-0.2,5-5.4,11.3c-5.2,6.3-7.2,7.6-8.9,11.9c-1.7,4.3-2.2,8.5-2.2,8.5
		c-0.7-1.5-5-6.5-8-15.2c-1.5-4.3,0.4-8.7,0.4-8.7c-3,2.4-5.2,5.7-6.1,11.1c-0.9,5.4-1.1,16.5-2.2,21.3c-1.1,4.8-5,9.3-5,9.3
		s-0.6-1.7-1.3-5.4c-0.7-3.7-3.9-6.7-3.9-6.7c2.4,8.9-1.1,13.9-3,18.1c-1.9,4.3-5.6,14.4,12.6,23.9C55,286,86,281.4,98.8,274.5
		C111.6,267.7,108.8,256.2,108.8,256.2"/>
</g>
<g>
	<path class="st4" d="M249.2,453.2l-2.4-6.8h-13.1l-2.4,6.8h-3.4l11.1-30.1h2.7l11,30.1H249.2z M240.3,427.7l-5.7,15.9h11.2
		L240.3,427.7z"/>
	<polygon class="st4" points="287.3,453.2 284.4,453.2 279,437 273.6,453.2 270.7,453.2 264.2,432.4 267.4,432.4 272.2,449 
		277.7,432.4 280.3,432.4 285.8,449 290.5,432.4 293.8,432.4 	"/>
	<path class="st4" d="M311.4,451c-1.4,1.4-3.4,2.4-6,2.4c-2.5,0-4.5-0.9-6-2.4c-2.1-2.2-2.5-5.1-2.5-8.3c0-3.2,0.4-6.1,2.5-8.3
		c1.4-1.4,3.4-2.4,6-2.4c2.5,0,4.5,0.9,6,2.4c2.1,2.2,2.5,5.1,2.5,8.3C314,446,313.5,448.9,311.4,451 M309.3,436.3
		c-1-1-2.3-1.5-3.8-1.5c-1.5,0-2.8,0.6-3.8,1.5c-1.5,1.5-1.7,4.1-1.7,6.4c0,2.3,0.2,4.9,1.7,6.4c1,1,2.3,1.5,3.8,1.5
		c1.5,0,2.8-0.6,3.8-1.5c1.5-1.5,1.7-4.1,1.7-6.4C310.9,440.4,310.8,437.9,309.3,436.3"/>
	<path class="st4" d="M332.1,436.3c-1.1-1.1-2-1.5-3.6-1.5c-3,0-5,2.4-5,5.6v12.8h-3v-20.8h3v2.5c1.1-1.7,3.4-2.8,5.8-2.8
		c2,0,3.5,0.5,5,1.9L332.1,436.3z"/>
	<path class="st4" d="M343.5,453.2c-3.6,0-5.3-2.4-5.3-5.5v-24.6h3v24.4c0,2,0.7,3,2.8,3h1.6v2.6H343.5z"/>
	<path class="st4" d="M363.2,453.1v-2.5c-1.7,2.2-3.6,2.7-5.9,2.7c-2.1,0-4-0.7-5.1-1.8c-2.1-2.1-2.5-5.6-2.5-8.8
		c0-3.2,0.4-6.7,2.5-8.8c1.1-1.1,3-1.8,5.1-1.8c2.3,0,4.2,0.5,5.9,2.7v-11.7h3v30.1H363.2z M358,434.8c-4.5,0-5.2,3.9-5.2,7.9
		c0,4.1,0.7,8,5.2,8c4.5,0,5.2-3.9,5.2-8C363.2,438.7,362.5,434.8,358,434.8"/>
	<path class="st4" d="M397.7,451c-1.4,1.4-3.4,2.4-6,2.4c-2.5,0-4.5-0.9-6-2.4c-2.1-2.2-2.5-5.1-2.5-8.3c0-3.2,0.4-6.1,2.5-8.3
		c1.4-1.4,3.4-2.4,6-2.4c2.5,0,4.5,0.9,6,2.4c2.1,2.2,2.5,5.1,2.5,8.3C400.2,446,399.8,448.9,397.7,451 M395.5,436.3
		c-1-1-2.3-1.5-3.8-1.5c-1.5,0-2.8,0.6-3.8,1.5c-1.5,1.5-1.7,4.1-1.7,6.4c0,2.3,0.2,4.9,1.7,6.4c1,1,2.3,1.5,3.8,1.5
		c1.5,0,2.8-0.6,3.8-1.5c1.5-1.5,1.6-4.1,1.6-6.4C397.2,440.4,397.1,437.9,395.5,436.3"/>
	<path class="st4" d="M410.5,434.8v18.3h-3v-18.3h-2.7v-2.3h2.7v-3.9c0-3.1,1.7-5.6,5.3-5.6h2.2v2.6h-1.7c-1.9,0-2.8,1.1-2.8,3v3.8
		h4.4v2.3H410.5z"/>
	<path class="st4" d="M434.2,434.8v18.3h-3v-18.3h-2.7v-2.3h2.7v-3.9c0-3.1,1.7-5.6,5.3-5.6h2.2v2.6H437c-1.9,0-2.8,1.1-2.8,3v3.8
		h4.4v2.3H434.2z"/>
	<path class="st4" d="M455.4,436.3c-1.1-1.1-2-1.5-3.6-1.5c-3,0-5,2.4-5,5.6v12.8h-3v-20.8h3v2.5c1.1-1.7,3.4-2.8,5.8-2.8
		c2,0,3.5,0.5,5,1.9L455.4,436.3z"/>
	<path class="st4" d="M463.5,443.6c0,4.6,2.2,7.2,6.1,7.2c2.4,0,3.8-0.7,5.5-2.4l2.1,1.8c-2.1,2.1-4.1,3.2-7.6,3.2
		c-5.5,0-9.1-3.3-9.1-10.6c0-6.7,3.2-10.6,8.5-10.6c5.4,0,8.5,3.9,8.5,10.1v1.4H463.5z M473.8,437.8c-0.8-1.9-2.7-3.1-4.9-3.1
		s-4.1,1.2-4.9,3.1c-0.5,1.1-0.6,1.8-0.6,3.5h11C474.4,439.6,474.3,439,473.8,437.8"/>
	<path class="st4" d="M490.5,453.4c-3.5,0-6.3-0.8-8.5-3l2-2c1.7,1.7,3.9,2.4,6.5,2.4c3.4,0,5.5-1.2,5.5-3.7c0-1.8-1.1-2.8-3.5-3
		l-3.4-0.3c-4.1-0.3-6.2-2.2-6.2-5.6c0-3.8,3.2-6.1,7.6-6.1c3,0,5.6,0.7,7.5,2.2l-2,2c-1.5-1.1-3.4-1.6-5.5-1.6
		c-3,0-4.7,1.3-4.7,3.4c0,1.8,1,2.8,3.6,3l3.3,0.3c3.6,0.3,6.1,1.7,6.1,5.6C499,451.1,495.5,453.4,490.5,453.4"/>
	<path class="st4" d="M518.2,453.2v-12.8c0-3.6-1.9-5.5-5.1-5.5c-3.1,0-5.2,1.9-5.2,5.5v12.8h-3v-30.1h3v11.6
		c1.5-1.7,3.5-2.5,5.8-2.5c4.7,0,7.5,3,7.5,7.7v13.4H518.2z"/>
	<path class="st4" d="M542,453.2v-12.8c0-3.7-2-5.5-5.1-5.5c-3.1,0-5.2,1.9-5.2,5.5v12.8h-3v-20.8h3v2.3c1.5-1.7,3.5-2.5,5.8-2.5
		c2.2,0,4.1,0.7,5.3,1.9c1.5,1.4,2.1,3.4,2.1,5.8v13.3H542z"/>
	<path class="st4" d="M554.3,443.6c0,4.6,2.2,7.2,6.1,7.2c2.4,0,3.8-0.7,5.5-2.4l2.1,1.8c-2.1,2.1-4.1,3.2-7.6,3.2
		c-5.5,0-9.1-3.3-9.1-10.6c0-6.7,3.2-10.6,8.5-10.6c5.4,0,8.5,3.9,8.5,10.1v1.4H554.3z M564.7,437.8c-0.8-1.9-2.7-3.1-4.9-3.1
		c-2.2,0-4.1,1.2-4.9,3.1c-0.5,1.1-0.5,1.8-0.6,3.5h11C565.2,439.6,565.1,439,564.7,437.8"/>
	<path class="st4" d="M581.3,453.4c-3.5,0-6.3-0.8-8.5-3l2-2c1.6,1.7,3.9,2.4,6.5,2.4c3.4,0,5.5-1.2,5.5-3.7c0-1.8-1.1-2.8-3.5-3
		l-3.4-0.3c-4.1-0.3-6.2-2.2-6.2-5.6c0-3.8,3.2-6.1,7.6-6.1c3,0,5.6,0.7,7.5,2.2l-2,2c-1.5-1.1-3.4-1.6-5.5-1.6
		c-3,0-4.7,1.3-4.7,3.4c0,1.8,1,2.8,3.6,3l3.3,0.3c3.6,0.3,6.1,1.7,6.1,5.6C589.8,451.1,586.4,453.4,581.3,453.4"/>
	<path class="st4" d="M602.3,453.4c-3.5,0-6.3-0.8-8.5-3l2-2c1.6,1.7,3.9,2.4,6.5,2.4c3.4,0,5.5-1.2,5.5-3.7c0-1.8-1.1-2.8-3.5-3
		l-3.4-0.3c-4.1-0.3-6.2-2.2-6.2-5.6c0-3.8,3.2-6.1,7.6-6.1c3,0,5.6,0.7,7.5,2.2l-2,2c-1.5-1.1-3.4-1.6-5.5-1.6
		c-3,0-4.7,1.3-4.7,3.4c0,1.8,1,2.8,3.6,3l3.3,0.3c3.6,0.3,6.1,1.7,6.1,5.6C610.7,451.1,607.3,453.4,602.3,453.4"/>
</g>
</svg>
