<svg xmlns="http://www.w3.org/2000/svg" viewBox="0 0 226.54 89.17"><defs><style>.cls-1{fill:#cf402f;fill-rule:evenodd;}</style></defs><g id="Layer_2" data-name="Layer 2"><g id="Clients"><g id="Logos_Color" data-name="Logos Color"><g id="Nestle"><path class="cls-1" d="M169.21,4A3.3,3.3,0,0,0,165.94.72h-4.82A3.28,3.28,0,0,0,158,4V54.26a3.22,3.22,0,0,0,3.17,3.28h4.82a3.3,3.3,0,0,0,3.27-3.28Zm6.14,1.33V7.79a1.8,1.8,0,0,0,1.74,1.74h33.17A2.75,2.75,0,0,0,213,6.79v-4A2.68,2.68,0,0,0,210.26,0L177.19,3.28A2,2,0,0,0,175.35,5.33ZM148.53,57.54A13.05,13.05,0,0,1,135,44.33V24.17h-2.35a2.28,2.28,0,0,1-2.25-2.26V18.54a2.28,2.28,0,0,1,2.25-2.26H135V3.9A3.1,3.1,0,0,1,138.19.83h4.71A3.13,3.13,0,0,1,146.08,4V16.28h7.26a2.3,2.3,0,0,1,2.36,2.26v3.37a2.3,2.3,0,0,1-2.36,2.26h-7.26V42.8c0,3.68,2.25,6.14,6.14,6.14h.72a2.48,2.48,0,0,1,2.45,2.46v3.68a2.48,2.48,0,0,1-2.45,2.45h-4.41ZM92,36.24c0-10.64-6.35-21.39-20.68-21.39-13.41,0-20.88,10.44-20.88,21.39,0,11.78,8.08,22,20.88,22,8.91,0,17.5-4.6,19.14-12.28a1.86,1.86,0,0,0-1.3-2.29,1.63,1.63,0,0,0-.54-.06H82.3a3.33,3.33,0,0,0-2.66,1.43c-1.74,2.56-4.4,4-8.29,4a9.58,9.58,0,0,1-9.62-9.11H88.45C91,39.93,92,38.6,92,36.24Zm-30.2-4.6c.41-4.71,4.5-8.19,9.52-8.19a9.3,9.3,0,0,1,9.52,8.19Zm152.32,4.6c0-10.64-6.35-21.39-20.78-21.39-13.31,0-20.78,10.44-20.78,21.39,0,11.78,8,22,20.88,22,8.8,0,17.5-4.6,19.14-12.28a2,2,0,0,0-1.94-2.35h-6.25a3.19,3.19,0,0,0-2.66,1.43c-1.84,2.56-4.4,4-8.39,4a9.65,9.65,0,0,1-9.62-9.11h26.82c2.45,0,3.58-1.33,3.58-3.69Zm-30.3-4.6a9.29,9.29,0,0,1,9.52-8.19c4.91,0,9.21,3.48,9.62,8.19Z"/><path class="cls-1" d="M126,1.34H39.31a3.56,3.56,0,0,0-3.58,3.54v0L36,39S17.3,5.23,16.28,3.49A6.12,6.12,0,0,0,10.75.42H3.58A3.56,3.56,0,0,0,0,4V54a3.63,3.63,0,0,0,3.58,3.59H8.19A3.62,3.62,0,0,0,11.77,54l-.3-35.11S30.3,53,31.12,54.36a6.33,6.33,0,0,0,5.63,3.18H43.3A3.62,3.62,0,0,0,46.88,54V9.83H126a2.42,2.42,0,0,0,2.46-2.45V3.8A2.42,2.42,0,0,0,126,1.34Z"/><path class="cls-1" d="M112,23c3.79,0,6.65,1.33,7.68,3.68.4,1.23,1.43,1.44,2.66,1.44h5.22a2,2,0,0,0,1.84-1.84c0-6-7.17-11.47-17.4-11.47-10.55,0-17.4,5-17.4,13,0,6.14,4.81,9.72,10.74,11.36,2.67.72,7.27,1.85,9.53,2.46,2.45.61,4.6,1.33,4.6,3.38,0,3.27-3.38,4.4-7.17,4.4-3.58,0-7.16-1.53-8.19-4.09-.61-1.54-1.63-1.74-3.17-1.74H95.61a2,2,0,0,0-2,2v.62c0,5.83,7.78,12,18.63,12,7.68,0,18.33-3.17,18.33-13.41,0-6-4-10.13-10.44-11.77-2.56-.61-8.7-2.15-9.93-2.56-2.46-.61-4.61-1.33-4.61-3.37,0-3.08,2.87-4.1,6.35-4.1ZM.41,70.84c90-28.35,158.77,22.11,212.61-9C178,110.77,68.48,46.79.41,89.17V70.84ZM216.2,52.62a5.06,5.06,0,0,1,5.11-5.11,5.12,5.12,0,1,1,0,10.23A5.06,5.06,0,0,1,216.2,52.62Zm5.11,4.2a4.2,4.2,0,1,0-4.09-4.2A4.09,4.09,0,0,0,221.31,56.82Zm-1-1.23h-.92V49.65h2.25c1.43,0,2,.52,2,1.75,0,1-.62,1.43-1.54,1.53l1.75,2.66h-1L221.32,53h-1v2.56Zm1-3.38c.82,0,1.44,0,1.44-.92,0-.72-.62-.82-1.23-.82h-1.23v1.74Z"/></g></g></g></g></svg>