<?xml version="1.0" encoding="utf-8"?>
<!-- Generator: Adobe Illustrator 26.3.1, SVG Export Plug-In . SVG Version: 6.00 Build 0)  -->
<svg version="1.1" id="Layer_1" xmlns="http://www.w3.org/2000/svg" xmlns:xlink="http://www.w3.org/1999/xlink" x="0px" y="0px"
	 viewBox="0 0 24 24" style="enable-background:new 0 0 24 24;" xml:space="preserve">
<style type="text/css">
	.st0{fill:#FFFFFF;}
</style>
<path class="st0" d="M8.1,6.3C8.6,6.1,9,6,9.5,6c0.5,0,1.1,0.2,1.6,0.6C11.6,7,12,7.7,12,8.5c0,1-0.7,1.5-1.1,1.8c0,0-0.1,0-0.1,0.1
	c-0.4,0.3-0.6,0.5-0.6,0.9c0,0.4-0.3,0.8-0.8,0.8s-0.8-0.3-0.8-0.8c0-1.1,0.7-1.7,1.2-2.1c0.5-0.4,0.6-0.5,0.6-0.7
	c0-0.4-0.1-0.6-0.3-0.8C10,7.6,9.7,7.5,9.5,7.5c-0.3,0-0.5,0-0.6,0.1C8.7,7.7,8.6,7.8,8.4,8.1c-0.2,0.4-0.7,0.5-1,0.3
	C7,8.2,6.9,7.8,7.1,7.4C7.4,6.9,7.7,6.5,8.1,6.3z"/>
<path class="st0" d="M9.5,15c0.6,0,1-0.4,1-1c0-0.6-0.4-1-1-1c-0.6,0-1,0.4-1,1C8.5,14.6,8.9,15,9.5,15z"/>
<path class="st0" d="M9.5,3C5.4,3,2,6.4,2,10.5c0,1.1,0.3,2.2,0.7,3.2c-0.3,1-0.5,2.1-0.7,2.8c-0.2,0.9,0.6,1.7,1.5,1.5
	c0.8-0.2,1.9-0.5,2.9-0.7c0.9,0.4,2,0.7,3.1,0.7c4.1,0,7.5-3.4,7.5-7.5C17,6.4,13.6,3,9.5,3z M3.5,10.5c0-3.3,2.7-6,6-6
	c3.3,0,6,2.7,6,6c0,3.3-2.7,6-6,6c-1,0-1.9-0.2-2.7-0.6l-0.2-0.1l-0.3,0.1c-0.9,0.2-2,0.5-2.8,0.7c0.2-0.8,0.5-1.8,0.7-2.7l0.1-0.3
	l-0.1-0.3C3.7,12.4,3.5,11.5,3.5,10.5z"/>
<path class="st0" d="M14.5,21c-2,0-3.8-0.8-5.1-2c0,0,0.1,0,0.1,0c0.7,0,1.4-0.1,2.1-0.3c0.9,0.5,1.9,0.8,2.9,0.8
	c1,0,1.9-0.2,2.7-0.6l0.2-0.1l0.3,0.1c0.9,0.2,2,0.4,2.7,0.6c-0.2-0.8-0.4-1.8-0.6-2.7l-0.1-0.3l0.1-0.3c0.4-0.8,0.7-1.8,0.7-2.7
	c0-2.1-1.1-4-2.7-5c-0.2-0.7-0.4-1.4-0.8-2c2.9,1,5,3.8,5,7.1c0,1.1-0.3,2.2-0.7,3.2c0.3,1,0.5,2.1,0.7,2.8c0.2,0.9-0.6,1.7-1.5,1.5
	c-0.7-0.2-1.9-0.4-2.9-0.6C16.6,20.8,15.6,21,14.5,21z"/>
</svg>
