<?xml version="1.0" encoding="utf-8"?>
<!-- Generator: Adobe Illustrator 26.3.1, SVG Export Plug-In . SVG Version: 6.00 Build 0)  -->
<svg version="1.1" id="Layer_1" xmlns="http://www.w3.org/2000/svg" xmlns:xlink="http://www.w3.org/1999/xlink" x="20px" y="20px"
	 viewBox="0 0 24 24" style="enable-background:new 0 0 24 24;" xml:space="preserve">
<style type="text/css">
	.st0{fill:#FFFFFF;}
</style>
<path class="st0" d="M12.5,3.8C11.4,3,9.8,3.7,9.7,5.1L9.5,7.5h2.7c0.4,0,0.8,0.3,0.8,0.8C13,8.7,12.7,9,12.2,9H9.4l-0.6,9
	c-0.2,2.7-3.4,4-5.4,2.2l-0.2-0.2c-0.3-0.3-0.3-0.7-0.1-1.1c0.3-0.3,0.7-0.3,1.1-0.1l0.2,0.2c1.1,1,2.8,0.2,2.9-1.2L7.9,9H5.8
	C5.3,9,5,8.7,5,8.2c0-0.4,0.3-0.8,0.8-0.8H8L8.2,5c0.2-2.6,3.1-3.9,5.2-2.4l0.4,0.3c0.3,0.2,0.4,0.7,0.2,1c-0.2,0.3-0.7,0.4-1,0.2
	L12.5,3.8z"/>
<path class="st0" d="M13.7,12.8c-0.2-0.4-0.8-0.5-1.2-0.2l-0.3,0.3c-0.3,0.3-0.8,0.2-1.1-0.1c-0.3-0.3-0.2-0.8,0.1-1.1l0.3-0.3
	c1.1-0.9,2.8-0.6,3.5,0.7l1,1.9l2.7-2.7c0.3-0.3,0.8-0.3,1.1,0c0.3,0.3,0.3,0.8,0,1.1l-3,3l1.5,2.9c0.2,0.4,0.8,0.5,1.2,0.2l0.3-0.3
	c0.3-0.3,0.8-0.2,1.1,0.1c0.3,0.3,0.2,0.8-0.1,1.1l-0.3,0.3c-1.1,0.9-2.8,0.6-3.5-0.7l-1.3-2.5l-3.4,3.4c-0.3,0.3-0.8,0.3-1.1,0
	s-0.3-0.8,0-1.1l3.7-3.7L13.7,12.8z"/>
</svg>
