<?xml version="1.0" encoding="utf-8"?>
<!-- Generator: Adobe Illustrator 26.3.1, SVG Export Plug-In . SVG Version: 6.00 Build 0)  -->
<svg version="1.1" id="Layer_1" xmlns="http://www.w3.org/2000/svg" xmlns:xlink="http://www.w3.org/1999/xlink" x="0px" y="0px"
	 viewBox="0 0 24 24" style="enable-background:new 0 0 24 24;" xml:space="preserve">
<style type="text/css">
	.st0{fill:#FFFFFF;}
</style>
<path class="st0" d="M19.2,11c1,0,1.8,0.8,1.8,1.8v6.5c0,1-0.8,1.8-1.8,1.8h-4.5c-1,0-1.8-0.8-1.8-1.8v-6.5c0-1,0.8-1.8,1.8-1.8
	H19.2z M9.3,15c1,0,1.8,0.8,1.8,1.7v2.5c0,1-0.8,1.8-1.8,1.8H4.8c-1,0-1.8-0.8-1.8-1.8v-2.5c0-1,0.8-1.7,1.8-1.7H9.3z M19.2,12.5
	h-4.5c-0.1,0-0.2,0.1-0.2,0.2v6.5c0,0.1,0.1,0.2,0.2,0.2h4.5c0.1,0,0.2-0.1,0.2-0.2v-6.5C19.5,12.6,19.4,12.5,19.2,12.5z M9.3,16.5
	H4.8c-0.1,0-0.2,0.1-0.2,0.2v2.5c0,0.1,0.1,0.2,0.2,0.2h4.5c0.1,0,0.2-0.1,0.2-0.2v-2.5C9.5,16.6,9.4,16.5,9.3,16.5z M9.3,3
	c1,0,1.8,0.8,1.8,1.8v6.5c0,0.9-0.7,1.7-1.6,1.7l-0.1,0H4.8c-1,0-1.8-0.8-1.8-1.8V4.8C3,3.8,3.8,3,4.8,3H9.3z M9.3,4.5H4.8
	c-0.1,0-0.2,0.1-0.2,0.2v6.5c0,0.1,0.1,0.2,0.2,0.2h4.5l0.1,0c0.1,0,0.2-0.1,0.2-0.2V4.8C9.5,4.6,9.4,4.5,9.3,4.5z M19.2,3
	c1,0,1.8,0.8,1.8,1.8v2.5c0,1-0.8,1.8-1.8,1.8h-4.5c-1,0-1.8-0.8-1.8-1.8V4.8c0-1,0.8-1.8,1.8-1.8H19.2z M14.8,4.5
	c-0.1,0-0.2,0.1-0.2,0.2v2.5c0,0.1,0.1,0.2,0.2,0.2h4.5c0.1,0,0.2-0.1,0.2-0.2V4.8c0-0.1-0.1-0.2-0.2-0.2H14.8z"/>
</svg>
