<?xml version="1.0" encoding="utf-8"?>
<!-- Generator: Adobe Illustrator 26.3.1, SVG Export Plug-In . SVG Version: 6.00 Build 0)  -->
<svg version="1.1" id="Layer_1" xmlns="http://www.w3.org/2000/svg" xmlns:xlink="http://www.w3.org/1999/xlink" x="0px" y="0px"
	 viewBox="0 0 24 24" style="enable-background:new 0 0 24 24;" xml:space="preserve">
<style type="text/css">
	.st0{fill:#FFFFFF;}
</style>
<path class="st0" d="M10.2,4.2C10.7,4.2,11,4.6,11,5v8h8c0.4,0,0.7,0.3,0.7,0.6l0,0.1c0,5-4,8.5-9,8.5c-5,0-9-4-9-9
	C1.8,8.3,5.3,4.2,10.2,4.2z M9.5,5.8l-0.2,0c-3.7,0.5-6,3.6-6,7.4c0,4.1,3.4,7.5,7.5,7.5c3.8,0,7-2.4,7.4-6l0-0.2h-8
	c-0.4,0-0.7-0.3-0.7-0.6l0-0.1V5.8z M13.2,1.8c5,0,9,4,9,9c0,0.4-0.3,0.8-0.8,0.8h-8.2c-0.4,0-0.8-0.3-0.8-0.8V2.5
	C12.5,2.1,12.8,1.8,13.2,1.8z M14,3.3V10h6.7l0-0.2c-0.4-3.4-3.1-6-6.5-6.5L14,3.3z"/>
</svg>
