<?xml version="1.0" encoding="utf-8"?>
<!-- Generator: Adobe Illustrator 26.3.1, SVG Export Plug-In . SVG Version: 6.00 Build 0)  -->
<svg version="1.1" id="Layer_1" xmlns="http://www.w3.org/2000/svg" xmlns:xlink="http://www.w3.org/1999/xlink" x="0px" y="0px"
	 viewBox="0 0 24 24" style="enable-background:new 0 0 24 24;" xml:space="preserve">
<style type="text/css">
	.st0{fill:#FFFFFF;}
</style>
<path class="st0" d="M3,6.2C3,4.5,4.5,3,6.2,3h11.5C19.5,3,21,4.5,21,6.2v11.5c0,1.8-1.5,3.2-3.2,3.2H6.2C4.5,21,3,19.5,3,17.8V6.2z
	 M6.2,4.5c-1,0-1.8,0.8-1.8,1.8v11.5c0,1,0.8,1.8,1.8,1.8H9v-15H6.2z M10.5,4.5V14h9V6.2c0-1-0.8-1.8-1.8-1.8H10.5z M19.5,15.5h-9v4
	h7.2c1,0,1.8-0.8,1.8-1.8V15.5z"/>
</svg>
