<?xml version="1.0" encoding="utf-8"?>
<!-- Generator: Adobe Illustrator 26.3.1, SVG Export Plug-In . SVG Version: 6.00 Build 0)  -->
<svg version="1.1" id="Layer_1" xmlns="http://www.w3.org/2000/svg" xmlns:xlink="http://www.w3.org/1999/xlink" x="0px" y="0px"
	 viewBox="0 0 24 24" style="enable-background:new 0 0 24 24;" xml:space="preserve">
<style type="text/css">
	.st0{fill:#FFFFFF;}
</style>
<path class="st0" d="M5.7,12L2.3,3.3c-0.2-0.6,0.4-1.2,0.9-1l0.1,0l18,9c0.5,0.3,0.6,1,0.1,1.3l-0.1,0.1l-18,9
	c-0.6,0.3-1.2-0.2-1.1-0.8l0-0.1L5.7,12L2.3,3.3L5.7,12z M4.4,4.5L7,11.2l6.6,0c0.4,0,0.7,0.3,0.7,0.6l0,0.1c0,0.4-0.3,0.7-0.6,0.7
	l-0.1,0l-6.6,0l-2.6,6.7L19.3,12L4.4,4.5z"/>
</svg>
