<?xml version="1.0" encoding="utf-8"?>
<!-- Generator: Adobe Illustrator 26.3.1, SVG Export Plug-In . SVG Version: 6.00 Build 0)  -->
<svg version="1.1" id="Layer_1" xmlns="http://www.w3.org/2000/svg" xmlns:xlink="http://www.w3.org/1999/xlink" x="0px" y="0px"
	 viewBox="0 0 24 24" style="enable-background:new 0 0 24 24;" xml:space="preserve">
<style type="text/css">
	.st0{fill:#FFFFFF;}
</style>
<path class="st0" d="M5.6,2.1C5.8,2.2,6,2.5,6,2.8c0,0.8,0.3,1.3,0.7,1.9l0,0c0.3,0.5,0.8,1.1,0.8,2.1C7.5,7.7,7,8.5,6.3,9
	c0.2,0.2,0.4,0.4,0.5,0.6c0.5,0.8,0.7,1.9,0.7,3.6c0,1.7-0.2,3.8-0.6,5.4c-0.2,0.8-0.4,1.6-0.7,2.1c-0.1,0.3-0.3,0.6-0.5,0.8
	C5.5,21.8,5.2,22,4.8,22S4,21.8,3.8,21.6c-0.2-0.2-0.4-0.5-0.5-0.8c-0.3-0.6-0.5-1.3-0.7-2.1C2.2,17,2,15,2,13.3
	c0-1.7,0.2-2.9,0.7-3.6C2.8,9.4,3,9.2,3.2,9C2.5,8.5,2,7.7,2,6.8c0-0.4,0-1,0.4-1.8c0.4-0.8,1.1-1.7,2.4-2.8C5,2,5.3,1.9,5.6,2.1z
	 M3.5,6.7L3.5,6.7C3.5,7.4,4.1,8,4.8,8S6,7.4,6,6.8C6,6.3,5.8,6,5.5,5.5l0,0C5.2,5.1,4.9,4.7,4.8,4.2c-0.5,0.6-0.8,1-1,1.4
	C3.5,6.1,3.5,6.5,3.5,6.7z M4,10.4c-0.2,0.4-0.5,1.2-0.5,2.8c0,1.6,0.2,3.5,0.6,5.1c0.2,0.8,0.4,1.4,0.6,1.8c0,0.1,0.1,0.1,0.1,0.2
	c0-0.1,0.1-0.1,0.1-0.2c0.2-0.4,0.4-1,0.6-1.8C5.8,16.8,6,14.9,6,13.3c0-1.6-0.2-2.4-0.5-2.8c-0.1-0.2-0.2-0.3-0.3-0.3
	C5.1,10,5,10,4.8,10s-0.3,0-0.5,0.1C4.2,10.1,4.1,10.2,4,10.4z"/>
<path class="st0" d="M10,14.9c-0.5-0.1-1.1-0.3-1.5-0.5c0-0.4,0-0.8,0-1.2c0-0.2,0-0.3,0-0.5c0.5,0.3,1,0.5,1.5,0.7v-2.9
	C10,9.7,10.7,9,11.5,9h4c0-2.5-2-4.5-4.5-4.5c-1,0-2,0.3-2.7,0.9c-0.2-0.6-0.5-1-0.7-1.3l0-0.1C8.5,3.4,9.7,3,11,3c3.3,0,6,2.7,6,6
	h3.5c0.8,0,1.5,0.7,1.5,1.5v9c0,0.8-0.7,1.5-1.5,1.5h-9c-0.8,0-1.5-0.7-1.5-1.5V14.9z M11.5,15v4.5h9v-9h-3.7
	C16.2,12.9,14.1,14.8,11.5,15z M15.2,10.5h-3.7v3C13.2,13.3,14.7,12.1,15.2,10.5z"/>
</svg>
