<svg xmlns="http://www.w3.org/2000/svg" viewBox="0 0 226.47 226.47"><defs><style>.cls-1{fill:#fff;}.cls-2{fill:none;}</style></defs><g id="Layer_2" data-name="Layer 2"><g id="Programs"><g id="White_Reverse" data-name="White Reverse"><g id="Acrobat"><path class="cls-1" d="M182.17,130.75c-10.48-11.14-39.47-6.61-46.27-5.48a117.82,117.82,0,0,1-19.36-25.49,113.67,113.67,0,0,0,6.61-33.44c0-10.2-4.06-21.15-15.39-21.15a11.48,11.48,0,0,0-9.54,5.57c-4.82,8.31-2.93,25.5,4.81,42.88-4.53,12.75-11,31.16-19.64,46.08-11.62,4.63-36.26,16-38.63,28.52a10.61,10.61,0,0,0,3.4,10,14.34,14.34,0,0,0,10,3.59c14.82,0,29.65-20.58,39.66-38.24a252.09,252.09,0,0,1,35.32-9.26c15.68,13.69,29.65,15.77,36.74,15.77,9.63,0,13.22-4.15,14.54-7.65A11.78,11.78,0,0,0,182.17,130.75ZM55.44,174a3.93,3.93,0,0,1-2.46-.85,3.54,3.54,0,0,1-1.23-3.5c1-5.48,11.9-13.41,28.05-20.59C70.26,164.37,60.91,174,55.44,174ZM104.36,54.35a3.78,3.78,0,0,1,3.3-2.08c3.59,0,4.35,4.35,4.35,7.94a110.78,110.78,0,0,1-4.73,25.21C101.24,69.37,102.09,58.22,104.36,54.35Zm-.85,78.48a238.73,238.73,0,0,0,9.35-22.48,118.43,118.43,0,0,0,12.84,16.81A213.8,213.8,0,0,0,103.51,132.83Zm68.46,5.1c-.47,2.74-4,5.48-10.48,4.06A52.53,52.53,0,0,1,140.9,131.6c5.1-.85,17-2,25.41-.37C169.33,131.79,172.82,133.49,172,137.93Z"/><rect class="cls-2" width="226.47" height="226.47"/></g></g></g></g></svg>