<svg xmlns="http://www.w3.org/2000/svg" viewBox="0 0 226.47 226.47"><defs><style>.cls-1{fill:#fff;}.cls-2{fill:none;}</style></defs><g id="Layer_2" data-name="Layer 2"><g id="Programs"><g id="White_Reverse" data-name="White Reverse"><g id="Aero"><path class="cls-1" d="M97.35,60.35c-.1-.47-.47-.76-1.23-.76H71.66a1,1,0,0,0-.76,1,32.77,32.77,0,0,1-.56,6.14c-.38,1.13-.66,2-1,2.93L39,157c-.28,1.13,0,1.7,1,1.7H57.78a1.65,1.65,0,0,0,1.79-1.32l7.18-22.29h35.13l7.74,22.57a1.44,1.44,0,0,0,1.52,1h19.73c.95,0,1.23-.47.95-1.51ZM72.23,116.26c1.41-4,2.83-8.41,4.15-13.23,1.51-4.72,2.93-9.44,4.35-14a116,116,0,0,0,3.21-12.19h.19c.66,2.27,1.32,4.73,2.07,7.37s1.61,5.48,2.55,8.41,1.8,5.76,2.74,8.69,1.7,5.57,2.55,8.12,1.61,4.81,2.17,6.8Z"/><path class="cls-1" d="M185.46,81.88a26.16,26.16,0,0,0-13.5,3.4,35.14,35.14,0,0,0-10.11,8.12c0-1.23-.09-2.36-.19-3.4s-.28-2-.47-2.93a10.43,10.43,0,0,0-.76-2.45,2.12,2.12,0,0,0-2-1.51h-16.9a.87.87,0,0,0-.67,1c.29,2.17.48,4.44.57,6.61.1,2.45.1,4.91.19,7.36s.09,4.82.09,7.09v52.32a1.32,1.32,0,0,0,1.51,1.13H161c.85,0,1.23-.38,1.23-1.32V109.46c1.13-1.33,3.49-2.46,5.66-3.5a39.32,39.32,0,0,1,7.94-2.55,35.33,35.33,0,0,1,9.44-.66c1,0,1.51-.28,1.51-1V82.92A1.18,1.18,0,0,0,185.46,81.88Z"/><rect class="cls-2" width="226.47" height="226.47"/></g></g></g></g></svg>