<svg xmlns="http://www.w3.org/2000/svg" viewBox="0 0 226.47 226.47"><defs><style>.cls-1{fill:#fff;}.cls-2{fill:none;}</style></defs><g id="Layer_2" data-name="Layer 2"><g id="Programs"><g id="White_Reverse" data-name="White Reverse"><g id="After_Effects" data-name="After Effects"><path class="cls-1" d="M86.41,60.44c-.09-.47-.56-.75-1.23-.75H60.72a.92.92,0,0,0-.75,1,32.74,32.74,0,0,1-.57,6.13c-.38,1.14-.66,2-.94,2.93L28.05,157c-.28,1.13,0,1.7,1,1.7H46.84a1.66,1.66,0,0,0,1.8-1.32l7.17-22.29H91l7.74,22.66a1.41,1.41,0,0,0,1.51,1h19.74c.94,0,1.23-.47.94-1.51ZM61.29,116.26c1.42-4,2.93-8.41,4.16-13.23,1.51-4.72,2.92-9.44,4.34-14A116,116,0,0,0,73,76.87h.19c.66,2.27,1.32,4.73,2.08,7.37s1.6,5.48,2.55,8.41,1.79,5.76,2.74,8.69,1.7,5.57,2.55,8.12,1.6,4.81,2.17,6.8Z"/><path class="cls-1" d="M192.47,103.51a34.5,34.5,0,0,0-5.67-10.77,26,26,0,0,0-9.91-7.55,34,34,0,0,0-14.64-2.93c-6.05,0-11.34.75-15.77,2.93a34.2,34.2,0,0,0-11.43,9A38.64,38.64,0,0,0,128,107.1a48.85,48.85,0,0,0-.37,28.8,34.63,34.63,0,0,0,6.51,12.37,31.91,31.91,0,0,0,11.9,9c4.91,2.17,11,3.31,18.14,3.31a64.12,64.12,0,0,0,13.41-1.14,40.2,40.2,0,0,0,9.44-2.83,2.31,2.31,0,0,0,.66-.66,4.46,4.46,0,0,0,.19-1.13V140.34c0-1-.28-1.14-.75-.76a35.12,35.12,0,0,1-8.41,2.17,55.55,55.55,0,0,1-9.82,1,29.21,29.21,0,0,1-12.09-2.36,14.9,14.9,0,0,1-6.89-5.66,20.79,20.79,0,0,1-2.93-8.41h29.94c2.45,0,4.72.38,6.89.38a46.69,46.69,0,0,0,5.48-.28c1.51-.1,2.55-.19,3.11-.19A1.43,1.43,0,0,0,193.7,125c.09-.85.18-2.17.37-4s.19-3.77.19-6A37,37,0,0,0,192.47,103.51Zm-18,8.21a4.61,4.61,0,0,1-2.17.76c-1.14.09-2.93.09-5.38.09H147a19.43,19.43,0,0,1,2.08-6.8,13.27,13.27,0,0,1,12.56-7.17,12.49,12.49,0,0,1,12.27,8.68,10.83,10.83,0,0,1,.57,3.5Z"/><rect class="cls-2" width="226.47" height="226.47"/></g></g></g></g></svg>