<svg xmlns="http://www.w3.org/2000/svg" viewBox="0 0 226.47 226.47"><defs><style>.cls-1{fill:#fff;}.cls-2{fill:none;}</style></defs><g id="Layer_2" data-name="Layer 2"><g id="Programs"><g id="White_Reverse" data-name="White Reverse"><g id="Bridge"><path class="cls-1" d="M118,109.13a32.46,32.46,0,0,0-6-4.16,17.32,17.32,0,0,0,4.06-3.78,20.8,20.8,0,0,0,3.68-6.42,24.06,24.06,0,0,0,1.79-8.88,27.94,27.94,0,0,0-1.32-8.4,22,22,0,0,0-5.57-8.78,29.75,29.75,0,0,0-11.33-6.9c-4.91-1.89-11.71-2.45-20-2.45-3.5,0-7.28,0-11.43.09s-7.56.09-11.14.19-6.24.09-7.94.19c-.66.09-.94.56-.94,1.51l.09,96.52c0,.75.29,1.22,1,1.22,1.42,0,3.12,0,5.1.1s4.35.09,7,.19,5.38.09,8.59.09h10a58.55,58.55,0,0,0,22.76-4.06,32.44,32.44,0,0,0,14.64-10.86,27.4,27.4,0,0,0,5.29-16.34,24.55,24.55,0,0,0-2.64-11.52A23.46,23.46,0,0,0,118,109.13ZM75.73,77.2c1-.09,1.89-.09,3.21-.09h4.44A29.92,29.92,0,0,1,93,78.34a12.23,12.23,0,0,1,5.67,3.87,11.88,11.88,0,0,1,2.27,7,11.57,11.57,0,0,1-1.51,5.85,15.25,15.25,0,0,1-3.31,4.06,29.46,29.46,0,0,0-5.67-.56c-2.64-.1-5.28-.19-8-.19H72.52L72.43,77.3C73.65,77.3,74.79,77.2,75.73,77.2ZM101.8,136a14.33,14.33,0,0,1-7.18,4.25,39.76,39.76,0,0,1-11.05,1.32c-2.46,0-4.53,0-6.23-.09s-3.12-.1-4.82-.19V116H85.18a54.82,54.82,0,0,1,5.57.28,31.78,31.78,0,0,1,4.15.76c3.5.94,5.95,2.64,7.27,4.63a12.42,12.42,0,0,1,2.55,7.17A11.3,11.3,0,0,1,101.8,136Z"/><path class="cls-1" d="M183.58,82.12c-5.29,0-9.63.56-13.69,2.83a36.41,36.41,0,0,0-10.11,8.5c0-1.23-.09-2.74-.19-3.78s-.28-2-.47-2.93a6,6,0,0,0-.75-2.17,2.13,2.13,0,0,0-2-1.51h-17a.87.87,0,0,0-.66,1c.29,2.17.48,4.44.57,6.61.09,2.46.09,4.91.19,7.37s.09,4.81.09,7.08v52.32a1.31,1.31,0,0,0,1.51,1.13H159c.85,0,1.23-.38,1.23-1.32V109.41a17.87,17.87,0,0,1,5.57-3.5,39.23,39.23,0,0,1,7.93-2.55,36.78,36.78,0,0,1,9.63-.66c1,0,1.51-.28,1.51-1V83.15A1.16,1.16,0,0,0,183.58,82.12Z"/><rect class="cls-2" width="226.47" height="226.47"/></g></g></g></g></svg>