<svg xmlns="http://www.w3.org/2000/svg" viewBox="0 0 226.47 226.47"><defs><style>.cls-1{fill:#fff;}.cls-2{fill:none;}</style></defs><g id="Layer_2" data-name="Layer 2"><g id="Programs"><g id="White_Reverse" data-name="White Reverse"><g id="Character_Animator" data-name="Character Animator"><path class="cls-1" d="M100.67,58.18c-4-.38-7.84-.57-11.8-.57a62.09,62.09,0,0,0-29.37,6.8,46.2,46.2,0,0,0-19,18.13c-4.43,7.74-6.7,16.81-6.7,27a60.17,60.17,0,0,0,2.55,18.23,44.79,44.79,0,0,0,7.27,14.16,43.44,43.44,0,0,0,11.24,10.3,52,52,0,0,0,14.54,6.23,67.08,67.08,0,0,0,16.81,2.08,100.87,100.87,0,0,0,11.9-.66,41.2,41.2,0,0,0,9-2.08,2.09,2.09,0,0,0,1.23-2.17V140a1.28,1.28,0,0,0-.19-1c-.28-.19-.56-.09-.94.19A35,35,0,0,1,99,141.19a93.24,93.24,0,0,1-10.29.47,39,39,0,0,1-9.35-1.42,37.32,37.32,0,0,1-9.07-3.4,26.62,26.62,0,0,1-7.55-6.23,27.48,27.48,0,0,1-5.29-9.25,37.58,37.58,0,0,1-1.89-12.47,35.83,35.83,0,0,1,4-17.09A28.2,28.2,0,0,1,70.74,80.46a35,35,0,0,1,17.47-4.25,73.72,73.72,0,0,1,11.14.85,34,34,0,0,1,9.07,2.74c.66.29,1,0,1-.94V61.76A2,2,0,0,0,108.7,60,39.14,39.14,0,0,0,100.67,58.18Z"/><path class="cls-1" d="M186.42,97.27c-1.51-3.87-3.3-7-5.85-9.25a22.19,22.19,0,0,0-8.31-4.44,31.14,31.14,0,0,0-8.88-1.32,33.7,33.7,0,0,0-11.14,1.41,43.15,43.15,0,0,0-8.79,4.44l-.09-35.88v-.29a.88.88,0,0,0-1-.75H123.15c-.85,0-1.23.37-1.23,1v105.3a1.17,1.17,0,0,0,1.32,1h19c.66,0,1-.37,1-1.22V104.07a24.51,24.51,0,0,1,5.77-3.21,23,23,0,0,1,6.7-.94,12.74,12.74,0,0,1,7,1.7,11.48,11.48,0,0,1,4,4.81,19.55,19.55,0,0,1,1.41,8v42.88a1.32,1.32,0,0,0,1.51,1.13h17.85c.85,0,1.23-.38,1.23-1.32V112.38C188.69,106.24,187.93,101.15,186.42,97.27Z"/><rect class="cls-2" width="226.47" height="226.47"/></g></g></g></g></svg>