<svg xmlns="http://www.w3.org/2000/svg" viewBox="0 0 226.47 226.47"><defs><style>.cls-1{fill:#fff;}.cls-2{fill:none;}</style></defs><g id="Layer_2" data-name="Layer 2"><g id="Programs"><g id="White_Reverse" data-name="White Reverse"><g id="Lightroom"><path class="cls-1" d="M122,139.82H78.37V60.21a.89.89,0,0,0-1-.76H58.44a1.18,1.18,0,0,0-1,1.32v96.52c0,1.13.47,1.7,1.51,1.7h59.88a1.42,1.42,0,0,0,1.51-1.42L123,141.14C123.23,140.29,122.94,139.82,122,139.82Z"/><path class="cls-1" d="M178,81.93a28.13,28.13,0,0,0-14.07,3.4,35.08,35.08,0,0,0-10.11,8.12c0-1.23-.09-2.36-.19-3.4s-.28-2-.47-2.93a5.85,5.85,0,0,0-.75-2.17,2.13,2.13,0,0,0-2-1.51H133.9c-.19-.1-.29-.1-.38,0a.86.86,0,0,0-.66,1q.42,3.1.57,6.23c.09,2.46.09,4.91.18,7.37s.1,4.81.1,7.08v52.7a1.31,1.31,0,0,0,1.51,1.13h18.41c.86,0,1.23-.38,1.23-1.32V109.5A15.87,15.87,0,0,1,160,106a38.4,38.4,0,0,1,17.85-3.21c1,0,1.51-.29,1.51-1V83A1.16,1.16,0,0,0,178,81.93Z"/><rect class="cls-2" width="226.47" height="226.47"/></g></g></g></g></svg>