<svg xmlns="http://www.w3.org/2000/svg" viewBox="0 0 226.47 226.47"><defs><style>.cls-1{fill:#fff;}.cls-2{fill:none;}</style></defs><g id="Layer_2" data-name="Layer 2"><g id="Programs"><g id="White_Reverse" data-name="White Reverse"><g id="Media_Encoder" data-name="Media Encoder"><path class="cls-1" d="M126.46,62v-.09a1.14,1.14,0,0,0-1.28-1H99.72a1.24,1.24,0,0,0-1.28,1c-.67,2.59-1.54,4.57-2.63,8.41s-2.26,8-3.49,12.51-2.49,9-3.77,13.62-2.54,9.06-3.77,13.41-2.32,8.26-3.27,11.75-1.61,6.29-2,8.39h-.15c-.47-2.4-1.09-5.42-1.84-9.06s-1.69-7.64-2.78-12-2.2-8.81-3.34-13.4-2.26-9.09-3.35-13.48S66,73.73,65,70.08,63.25,64.56,62.59,62a1.41,1.41,0,0,0-1.57-1H34.8a1,1,0,0,0-1.09.91l-5.12,94c-.1.6,0,1,.21,1.12a1.75,1.75,0,0,0,.92.23H46.23c.75,0,1.14-.4,1.14-1.2.28-6.29.52-12,.71-18.45s.35-12.68.49-18.72.29-11.83.43-17.37.22-10.61.22-15.2V74.35h.28q1.14,5,2.49,11.38t3.06,13.78q1.71,7.33,3.63,15.2t3.62,15.35q1.71,7.49,3.35,14.38c1.09,4.59,2.06,8,2.91,11.48a1.54,1.54,0,0,0,1.71,1.2H86.35a1.56,1.56,0,0,0,1.56-1.2c.86-3.49,1.92-6.89,3.2-11.48s2.61-9.54,4-14.83,2.79-10.63,4.26-16,2.85-10.61,4.13-15.65,2.39-9.59,3.34-13.63,1.71-7.31,2.28-9.81h.14q0,2.4-.07,7.26t-.07,11.46q0,6.59-.14,14.38t0,16.24q.14,8.47.21,16.85c0,5.59.07,10.29.07,15.38a1,1,0,0,0,.29.82,1.06,1.06,0,0,0,.71.23h18.49a1.24,1.24,0,0,0,.93-.38,1,1,0,0,0,.21-1Z"/><path class="cls-1" d="M200.39,103.11a33.86,33.86,0,0,0-5.54-10.55,26.13,26.13,0,0,0-9.8-7.72,37.57,37.57,0,0,0-15.23-3,35.11,35.11,0,0,0-15.57,3.22A33.47,33.47,0,0,0,143,93.89a38.68,38.68,0,0,0-7,12.73,47.33,47.33,0,0,0-2.32,14.75,47.91,47.91,0,0,0,2,13.56,34.5,34.5,0,0,0,6.43,12.2A31.86,31.86,0,0,0,153.8,156a42.67,42.67,0,0,0,17.82,3.29,60.78,60.78,0,0,0,12.13-.47,42.74,42.74,0,0,0,9.73-3.22,2.29,2.29,0,0,0,.67-.68,2.17,2.17,0,0,0,.23-1.12V139.54q0-1.35-.75-.75a39.45,39.45,0,0,1-8.76,2.62,40.47,40.47,0,0,1-8.37.66,29.28,29.28,0,0,1-12.15-2.58,15.41,15.41,0,0,1-6.81-5.61,22.74,22.74,0,0,1-3-8.58H184q3.58,0,6.81-.07c2.14-.06,4.72,0,6.17-.14s2.47-.23,3.06-.23a1.35,1.35,0,0,0,1.35-1.2,26,26,0,0,0,.58-3.17q.22-2.7.22-6A37.6,37.6,0,0,0,200.39,103.11Zm-18.87,9.09v.9a10.69,10.69,0,0,1-2.18.23c-1.14,0-2.91.07-5.31.07H154.41a31.81,31.81,0,0,1,2.3-8.05,13,13,0,0,1,12.36-7,12.23,12.23,0,0,1,12.13,8.54A25.23,25.23,0,0,1,181.52,112.2Z"/><rect class="cls-2" width="226.47" height="226.47"/></g></g></g></g></svg>