<svg xmlns="http://www.w3.org/2000/svg" viewBox="0 0 226.47 226.47"><defs><style>.cls-1{fill:#fff;}.cls-2{fill:none;}</style></defs><g id="Layer_2" data-name="Layer 2"><g id="Programs"><g id="White_Reverse" data-name="White Reverse"><g id="Photoshop_Express" data-name="Photoshop Express"><path class="cls-1" d="M76.52,70.22a30.78,30.78,0,0,0-11.43-7.75,47.19,47.19,0,0,0-17.47-2.93c-2.55,0-5.1,0-7.75.1s-5.1.09-7.36.19S28,59.92,26,60s-3.78.09-5.19.09c-.57,0-.85.38-.85,1v96.61c0,.85.28,1.23.94,1.23H37.61c.85,0,1.22-.47,1.22-1.32V128.2a36.81,36.81,0,0,1,3.69.1c.85.09,2.26.09,4.25.09a49.55,49.55,0,0,0,19.17-3.59,29.44,29.44,0,0,0,13.69-11.42c3.4-5.29,5.1-12,5.1-20a41.51,41.51,0,0,0-1.89-12.27A31.18,31.18,0,0,0,76.52,70.22ZM63.39,103.36a14.74,14.74,0,0,1-7,5,28.36,28.36,0,0,1-9.82,1.51H42.05c-1,0-2.08-.09-3.31-.19V78.34c1.13-.1,2.36-.19,3.49-.19,1.7-.1,3.59-.1,5.86-.1a24.61,24.61,0,0,1,10,1.89,13.71,13.71,0,0,1,5.95,5.39,16.14,16.14,0,0,1,2,8.4C66,97.79,65.18,101,63.39,103.36Z"/><path class="cls-1" d="M135.26,126.69a19.4,19.4,0,0,0-6.52-7.84,57.47,57.47,0,0,0-13-6.89c-2.08-.95-4.06-2-6-3.12a9.23,9.23,0,0,1-2.83-2.55,5.52,5.52,0,0,1-.85-2.45,4.67,4.67,0,0,1,.66-2.55,4.75,4.75,0,0,1,2.65-1.89,15.7,15.7,0,0,1,5.1-.66,36.11,36.11,0,0,1,9.53,1.22,24.84,24.84,0,0,1,7.65,3.22.9.9,0,0,0,1,0,.92.92,0,0,0,.38-1V86.93a4.32,4.32,0,0,0-.1-1.13A1.48,1.48,0,0,0,132,85a18.77,18.77,0,0,0-6.61-2.17,65.28,65.28,0,0,0-10.58-.85c-6,0-11.05,1.13-15,3.3a21.92,21.92,0,0,0-8.88,8.69A23,23,0,0,0,88,105.35,24.13,24.13,0,0,0,90,115a21.77,21.77,0,0,0,6.42,7.93,46.09,46.09,0,0,0,12.09,6.8c4.16,1.7,7,3.21,8.31,4.44a5.16,5.16,0,0,1,2.08,3.78,4.46,4.46,0,0,1-2.27,4c-1.51.94-3.87,1.32-7.08,1.32a45.17,45.17,0,0,1-10-1.42,30.61,30.61,0,0,1-9.73-4.63.69.69,0,0,0-.75-.09.91.91,0,0,0-.38.85v16.43a2,2,0,0,0,.94,1.8,26.77,26.77,0,0,0,7.84,3A52.5,52.5,0,0,0,109,160.41a35.42,35.42,0,0,0,15.4-3,21.64,21.64,0,0,0,9.53-8.4,23.41,23.41,0,0,0,3.31-12.56A23.1,23.1,0,0,0,135.26,126.69Z"/><path class="cls-1" d="M206.56,156.44,182.38,112.9l22.57-41a1.32,1.32,0,0,0,.19-1.52,1.26,1.26,0,0,0-1.41-.75H187.67a2,2,0,0,0-1.42.38,2.32,2.32,0,0,0-.66,1.13c-1.6,3.59-3.4,6.71-5.1,10.29s-3.49,7.18-5.1,10.68c-1.51,3.11-3,6.42-4.44,9.72-1.41-3.21-2.92-6.42-4.53-9.53-1.89-3.59-3.68-7.18-5.48-10.77S157.55,74.75,156,71a2.43,2.43,0,0,0-2.36-1.23H136.39a1.54,1.54,0,0,0-1.23.57,1.27,1.27,0,0,0,.1,1.51l22.85,42.5-23.42,42.21a1.64,1.64,0,0,0-.28,1.33,1.16,1.16,0,0,0,1.22,1.13h16.72a2.25,2.25,0,0,0,2.27-1.61c1.79-3.59,3.59-6.61,5.29-10.2s3.4-7.17,5.19-10.76c1.51-3.21,3.12-6.52,4.53-9.73,1.61,3.31,3.21,6.61,4.91,9.92,1.8,3.59,3.59,7.18,5.2,10.67s3.3,6.51,4.91,10a3.38,3.38,0,0,0,3.12,1.7h17.47a1.33,1.33,0,0,0,1.32-1A1.69,1.69,0,0,0,206.56,156.44Z"/><rect class="cls-2" width="226.47" height="226.47"/></g></g></g></g></svg>