<svg xmlns="http://www.w3.org/2000/svg" viewBox="0 0 226.47 226.47"><defs><style>.cls-1{fill:#fff;}.cls-2{fill:none;}</style></defs><g id="Layer_2" data-name="Layer 2"><g id="Programs"><g id="White_Reverse" data-name="White Reverse"><g id="Portfolio"><path class="cls-1" d="M116.51,69.65a33.67,33.67,0,0,0-12.66-7.74C98.57,59.92,92.14,59,84.4,59c-2.83,0-5.67,0-8.59.09s-5.67.1-8.22.19-4.91.1-7.18.19-4.15.09-5.76.09c-.66,0-.94.38-.94,1V157.2c0,.85.37,1.22,1,1.32l18.13.28h.38a1.16,1.16,0,0,0,1-1.32V128c1.8,0,3.5-.28,4.44-.19s2.46.1,4.73.1a60.53,60.53,0,0,0,21.24-3.59,32.38,32.38,0,0,0,15.21-11.52q5.67-7.94,5.67-20.12a36,36,0,0,0-2.18-12.27A30.08,30.08,0,0,0,116.51,69.65ZM102,102.89a16.3,16.3,0,0,1-7.75,5,35.2,35.2,0,0,1-10.86,1.51h-5c-1.14,0-2.74.19-4.07.09V78.05a22,22,0,0,1,4.25-.47c1.8-.09,4-.09,6.43-.09a27.53,27.53,0,0,1,11.14,1.89,13.64,13.64,0,0,1,6.61,5.38,15.51,15.51,0,0,1,2.17,8.41C104.89,97.32,104,100.53,102,102.89Z"/><path class="cls-1" d="M180.07,50.76a11.43,11.43,0,0,0-3.5-.85c-1.51-.09-2.93-.19-4.44-.19-6.23,0-11.14,1.33-14.92,4a26.73,26.73,0,0,0-8.69,10.2,31.32,31.32,0,0,0-2.45,7.65,53.84,53.84,0,0,0-.76,9.54v2.17h-9.63a.94.94,0,0,0-.76,1V99.87c0,.57.29.94,1,1h9.45V157.2c0,.84.38,1.32,1.23,1.32h18a1.29,1.29,0,0,0,1.14-.48,3.49,3.49,0,0,0,.19-.94V100.91h12.84c.85,0,1.32-.28,1.32-1V84.38a1.06,1.06,0,0,0-.19-.94,1.62,1.62,0,0,0-1.13-.29H166V79.28a18.53,18.53,0,0,1,1.51-6.8,6.29,6.29,0,0,1,3-3.59,10.58,10.58,0,0,1,4.81-1h2.27a19.28,19.28,0,0,1,2.27.18c.85.19,1.23,0,1.23-.75v-15A1.54,1.54,0,0,0,180.07,50.76Z"/><rect class="cls-2" width="226.47" height="226.47"/></g></g></g></g></svg>