<svg xmlns="http://www.w3.org/2000/svg" viewBox="0 0 226.47 226.47"><defs><style>.cls-1{fill:#fff;}.cls-2{fill:none;}</style></defs><g id="Layer_2" data-name="Layer 2"><g id="Programs"><g id="White_Reverse" data-name="White Reverse"><g id="Prelude"><path class="cls-1" d="M121,69.6a33.71,33.71,0,0,0-12.65-7.74c-5.29-2-11.71-2.93-19.46-2.93-2.83,0-5.66,0-8.59.1s-5.67.09-8.22.18-4.91.1-7.18.19-4.15.1-5.76.1c-.66,0-.94.38-.94,1v97.17c0,.85.28,1.23,1,1.23H78.12a1.16,1.16,0,0,0,1-1.32V127.68c1.8,0,3.12,0,4.07.1s2.45.09,4.72.09a60.35,60.35,0,0,0,21.25-3.59,32.34,32.34,0,0,0,15.2-11.52q5.67-7.94,5.67-20.11a36.29,36.29,0,0,0-2.17-12.28A30.24,30.24,0,0,0,121,69.6Zm-14.54,33.25a16.23,16.23,0,0,1-7.75,5,34.86,34.86,0,0,1-10.86,1.51h-5c-1.14,0-2.36-.09-3.69-.19V77.72A32.48,32.48,0,0,1,83,77.54c1.79-.1,4-.1,6.42-.1a27.71,27.71,0,0,1,11.14,1.89,13.69,13.69,0,0,1,6.61,5.38,15.51,15.51,0,0,1,2.17,8.41C109.37,97.27,108.43,100.48,106.45,102.85Z"/><path class="cls-1" d="M167.74,143.17a.88.88,0,0,0-.47-.09c-.57.09-1,.09-1.33.18a5.41,5.41,0,0,1-1.32.1c-1.79,0-3.11-.38-3.87-1.32s-1.13-2.36-1.13-4.53V52.32c0-.85-.38-1.23-1.33-1.23H139.88c-.85,0-1.32.38-1.32,1.23v87c0,5.57.85,9.91,2.45,12.75a13.25,13.25,0,0,0,6.8,6.42,25,25,0,0,0,9.82,1.79,39.7,39.7,0,0,0,5.76-.37,18.69,18.69,0,0,0,3.78-.95,1.37,1.37,0,0,0,.66-.56,5.11,5.11,0,0,0,.1-1.23v-13A1.55,1.55,0,0,0,167.74,143.17Z"/><rect class="cls-2" width="226.47" height="226.47"/></g></g></g></g></svg>