<svg xmlns="http://www.w3.org/2000/svg" viewBox="0 0 226.47 226.47"><defs><style>.cls-1{fill:#fff;}.cls-2{fill:none;}</style></defs><g id="Layer_2" data-name="Layer 2"><g id="Programs"><g id="White_Reverse" data-name="White Reverse"><g id="Premiere_Pro" data-name="Premiere Pro"><path class="cls-1" d="M116.3,69.7A33.73,33.73,0,0,0,103.65,62C98.36,60,91.94,59,84.19,59c-2.83,0-5.66,0-8.59.09s-5.67.09-8.22.19-4.91.09-7.17.19-3.69.09-5.29.09c-.66,0-1,.38-1,1v97.18c0,.85.38,1.23,1.14,1.23H73.43a1.19,1.19,0,0,0,1-1.33V127.4c1.79,0,3.11,0,4.06.09s2.45.1,4.72.1c7.74,0,14.83-.85,21.25-3.21a32.42,32.42,0,0,0,15.2-11.52q5.67-7.94,5.67-20.12a36.34,36.34,0,0,0-2.17-12.28A30.06,30.06,0,0,0,116.3,69.7ZM101.85,103a16.15,16.15,0,0,1-7.74,5,35.41,35.41,0,0,1-10.86,1.7h-5c-1.13,0-2.36-.09-3.68-.19V77.82a21.31,21.31,0,0,1,3.87-.1c1.8-.09,4-.09,6.42-.09A27.75,27.75,0,0,1,96,79.52a13.74,13.74,0,0,1,6.61,5.38,15.51,15.51,0,0,1,2.17,8.41C104.78,97.46,103.84,100.67,101.85,103Z"/><path class="cls-1" d="M182.79,81.69a29.35,29.35,0,0,0-14.36,3.68,35.1,35.1,0,0,0-10.1,8.13c0-1.23-.1-2.36-.19-3.4a29.28,29.28,0,0,0-.47-2.93,9.94,9.94,0,0,0-.57-2.36,2.12,2.12,0,0,0-2-1.51H138.59c-.09-.1-.28-.1-.28,0a.85.85,0,0,0-.66,1c.18,2.17.37,4.25.37,6.42.1,2.45.1,4.91.19,7.36s.1,4.82.1,7.09V157.9a1.31,1.31,0,0,0,1.51,1.14h18.6c.85,0,1.23-.38,1.23-1.32V109.55a14.62,14.62,0,0,1,4.82-3.49,38,38,0,0,1,7.93-2.55,41.09,41.09,0,0,1,10.2-1c1,0,1.51-.28,1.51-1V82.73A1.18,1.18,0,0,0,182.79,81.69Z"/><rect class="cls-2" width="226.47" height="226.47"/></g></g></g></g></svg>