<svg xmlns="http://www.w3.org/2000/svg" viewBox="0 0 226.47 226.47"><defs><style>.cls-1{fill:#fff;}.cls-2{fill:none;}</style></defs><g id="Layer_2" data-name="Layer 2"><g id="Programs"><g id="White_Reverse" data-name="White Reverse"><g id="Stock"><path class="cls-1" d="M107.8,112.31c-3.65-3.07-8.77-5.85-15.35-8.63l-5.56-2a66,66,0,0,1-8.63-4.39,15.73,15.73,0,0,1-4.53-3.8,6.94,6.94,0,0,1-1.31-4.24,7.84,7.84,0,0,1,.87-3.51,8.48,8.48,0,0,1,2.78-2.78A19.3,19.3,0,0,1,80.9,81a26.61,26.61,0,0,1,7.31-.73,86.25,86.25,0,0,1,12.43,1A48.15,48.15,0,0,1,111,85.11a.7.7,0,0,0,.88.15.8.8,0,0,0,.44-.58v-17a2,2,0,0,0-1-1.9A35.61,35.61,0,0,0,101.37,63a99.79,99.79,0,0,0-13.45-.87C80,62.16,73.29,63.47,68,66A27,27,0,0,0,56,76.34,27.4,27.4,0,0,0,52.09,91a29.78,29.78,0,0,0,2,11,22,22,0,0,0,7,9.5,57.5,57.5,0,0,0,14.33,8.34L82.94,123a42.81,42.81,0,0,1,8.19,3.94,14,14,0,0,1,4.24,3.95,9.11,9.11,0,0,1,1.17,4.54A7.76,7.76,0,0,1,92.89,142q-3.73,2.63-12.29,2.63a50.44,50.44,0,0,1-13.74-1.9,51.45,51.45,0,0,1-13.31-5.85.72.72,0,0,0-.88-.15,1,1,0,0,0-.43.88v17.84a2.48,2.48,0,0,0,1.17,2.49A51.39,51.39,0,0,0,65,161.59a79.88,79.88,0,0,0,15.21,1.46,51.37,51.37,0,0,0,19.88-3.51,30.52,30.52,0,0,0,13-10.23,26.62,26.62,0,0,0,4.68-15.5,29.93,29.93,0,0,0-2.2-11.55A25.6,25.6,0,0,0,107.8,112.31Z"/><path class="cls-1" d="M168.05,87.16H154.16c.14-3.8.14-7.6.29-11.55s.29-7,.44-9.36a1.28,1.28,0,0,0-.29-.88.68.68,0,0,0-.73,0L136,67.57a3,3,0,0,0-.73.58c-.29.29-.29.59-.43.88-.15,1.46-.44,3.36-.59,5.56s-.44,4.53-.58,6.72c-.3,2.2-.3,4.1-.44,5.85h-8.92c-.88,0-1.32.29-1.32,1.17v14.92c0,.87.29,1.31,1.17,1.31h8.92v37c0,7.45,1.9,13,5.56,16.38s8.77,5.11,15.35,5.11a35.52,35.52,0,0,0,7.17-.58c2-.44,4.09-.88,6-1.46.73-.15,1.17-.88,1.17-1.9V146.82a.88.88,0,0,0-.44-.88.68.68,0,0,0-.87-.14c-.88,0-1.61.14-2.49.14a13.07,13.07,0,0,1-2.49.15c-3.07,0-5.11-.73-6.28-2.19s-1.76-4-1.76-7.31v-32H168.2c.58-.14.73-.44.73-1V88.33C168.93,87.6,168.63,87.16,168.05,87.16Z"/><rect class="cls-2" width="226.47" height="226.47"/></g></g></g></g></svg>