<svg xmlns="http://www.w3.org/2000/svg" viewBox="0 0 226.47 226.47"><defs><style>.cls-1{fill:#fff;}.cls-2{fill:none;}</style></defs><g id="Layer_2" data-name="Layer 2"><g id="Programs"><g id="White_Reverse" data-name="White Reverse"><g id="Xd"><path class="cls-1" d="M90.73,107.57l28.33-46.75c.19-.19.38-.57.28-.66a.86.86,0,0,0-1-.66H98.38a1.77,1.77,0,0,0-1.23.19,1.64,1.64,0,0,0-.57.94c-2.08,3.87-4.15,7.93-6.33,11.9s-4.34,7.93-6.42,11.9-4.15,8-6.14,12.18h-.18c-2-4.06-4.07-8-6.33-12s-4.53-7.93-6.8-12-4.25-8.12-6-12.18a2.61,2.61,0,0,0-.94-.85,5.83,5.83,0,0,0-1.32-.19H34.63a1.08,1.08,0,0,0-.94.38c-.19.19-.1.57.18.95l28.62,48.44L33.12,157.34a1.32,1.32,0,0,0-.19,1c0,.47.28.28.66.28H54.37c1,0,1.79-.1,2.17-1,2.17-3.87,4.34-7.93,6.52-11.9s4.25-8,6.42-12.09,4.34-8.12,6.33-12.18H76c2.27,4.16,4.54,8.22,6.8,12.28s4.44,8,6.43,11.9,4.06,7.83,6,11.8c.66.95,1.7,1,3.21,1H120.1c.56-.09.94.19,1-.19a1.64,1.64,0,0,0-.19-1.13Z"/><path class="cls-1" d="M193.19,147.61c-.09-2.08-.19-4-.19-5.67V51.85a.83.83,0,0,0-.94-.66H172.89c-.66,0-.95.37-.95,1V82.07c-1.13-.1-2.07-.1-2.92-.19a17.73,17.73,0,0,0-2-.09c-9.35,0-17.28,1.79-23.89,5.47a38.77,38.77,0,0,0-20.21,34.57c0,8.59,1.7,15.77,5.2,21.53a32.88,32.88,0,0,0,14.26,12.84,46.79,46.79,0,0,0,20.3,4.25,83.21,83.21,0,0,0,14.54-1.32,71.75,71.75,0,0,0,15.4-4.53,1.54,1.54,0,0,0,.94-1.51C193.48,151.48,193.38,149.59,193.19,147.61Zm-21.25-6a8.43,8.43,0,0,1-3.39.47c-1.23.09-2.55.19-4,.19a24.71,24.71,0,0,1-7.84-1.23,16.3,16.3,0,0,1-6.42-3.78,18.37,18.37,0,0,1-4.25-6.7,26.53,26.53,0,0,1-1.61-9.73c0-4.91,1-9,3.12-12a21.15,21.15,0,0,1,8-7,23.27,23.27,0,0,1,10.67-2.46c1,0,2.08.1,3.12.19a22.23,22.23,0,0,1,2.54.47Z"/><rect class="cls-2" width="226.47" height="226.47"/></g></g></g></g></svg>